<svg xmlns="http://www.w3.org/2000/svg" xmlns:xlink="http://www.w3.org/1999/xlink" contentStyleType="text/css" height="724px" preserveAspectRatio="none" style="width:637px;height:724px;background:#FFFFFF;" version="1.1" viewBox="0 0 637 724" width="637px" zoomAndPan="magnify"><defs/><g><!--class Flota--><g id="elem_Flota"><rect codeLine="1" fill="#F1F1F1" height="48" id="Flota" rx="2.5" ry="2.5" style="stroke:#181818;stroke-width:0.5;" width="66.5762" x="178.28" y="7"/><ellipse cx="193.28" cy="23" fill="#ADD1B2" rx="11" ry="11" style="stroke:#181818;stroke-width:1.0;"/><path d="M196.2488,28.6406 Q195.6706,28.9375 195.03,29.0781 Q194.3894,29.2344 193.6863,29.2344 Q191.1863,29.2344 189.8581,27.5938 Q188.5456,25.9375 188.5456,22.8125 Q188.5456,19.6875 189.8581,18.0313 Q191.1863,16.375 193.6863,16.375 Q194.3894,16.375 195.03,16.5313 Q195.6863,16.6875 196.2488,16.9844 L196.2488,19.7031 Q195.6238,19.125 195.03,18.8594 Q194.4363,18.5781 193.8113,18.5781 Q192.4675,18.5781 191.78,19.6563 Q191.0925,20.7188 191.0925,22.8125 Q191.0925,24.9063 191.78,25.9844 Q192.4675,27.0469 193.8113,27.0469 Q194.4363,27.0469 195.03,26.7813 Q195.6238,26.5 196.2488,25.9219 L196.2488,28.6406 Z " fill="#000000"/><text fill="#000000" font-family="sans-serif" font-size="14" lengthAdjust="spacing" textLength="34.5762" x="207.28" y="27.8467">Flota</text><line style="stroke:#181818;stroke-width:0.5;" x1="179.28" x2="243.8562" y1="39" y2="39"/><line style="stroke:#181818;stroke-width:0.5;" x1="179.28" x2="243.8562" y1="47" y2="47"/></g><!--class Bus--><g id="elem_Bus"><rect codeLine="4" fill="#F1F1F1" height="96.8906" id="Bus" rx="2.5" ry="2.5" style="stroke:#181818;stroke-width:0.5;" width="62.5996" x="180.26" y="132"/><ellipse cx="197.4327" cy="148" fill="#ADD1B2" rx="11" ry="11" style="stroke:#181818;stroke-width:1.0;"/><path d="M200.4014,153.6406 Q199.8233,153.9375 199.1827,154.0781 Q198.542,154.2344 197.8389,154.2344 Q195.3389,154.2344 194.0108,152.5938 Q192.6983,150.9375 192.6983,147.8125 Q192.6983,144.6875 194.0108,143.0313 Q195.3389,141.375 197.8389,141.375 Q198.542,141.375 199.1827,141.5313 Q199.8389,141.6875 200.4014,141.9844 L200.4014,144.7031 Q199.7764,144.125 199.1827,143.8594 Q198.5889,143.5781 197.9639,143.5781 Q196.6202,143.5781 195.9327,144.6563 Q195.2452,145.7188 195.2452,147.8125 Q195.2452,149.9063 195.9327,150.9844 Q196.6202,152.0469 197.9639,152.0469 Q198.5889,152.0469 199.1827,151.7813 Q199.7764,151.5 200.4014,150.9219 L200.4014,153.6406 Z " fill="#000000"/><text fill="#000000" font-family="sans-serif" font-size="14" lengthAdjust="spacing" textLength="25.7715" x="211.9155" y="152.8467">Bus</text><line style="stroke:#181818;stroke-width:0.5;" x1="181.26" x2="241.8596" y1="164" y2="164"/><text fill="#000000" font-family="sans-serif" font-size="14" lengthAdjust="spacing" textLength="14.9092" x="186.26" y="180.9951">ID</text><text fill="#000000" font-family="sans-serif" font-size="14" lengthAdjust="spacing" textLength="50.5996" x="186.26" y="197.292">Modelo</text><text fill="#000000" font-family="sans-serif" font-size="14" lengthAdjust="spacing" textLength="36.5518" x="186.26" y="213.5889">Color</text><line style="stroke:#181818;stroke-width:0.5;" x1="181.26" x2="241.8596" y1="220.8906" y2="220.8906"/></g><!--class Incidencia--><g id="elem_Incidencia"><rect codeLine="10" fill="#F1F1F1" height="96.8906" id="Incidencia" rx="2.5" ry="2.5" style="stroke:#181818;stroke-width:0.5;" width="103.1279" x="7" y="463.49"/><ellipse cx="22" cy="479.49" fill="#ADD1B2" rx="11" ry="11" style="stroke:#181818;stroke-width:1.0;"/><path d="M24.9688,485.1306 Q24.3906,485.4275 23.75,485.5681 Q23.1094,485.7244 22.4063,485.7244 Q19.9063,485.7244 18.5781,484.0838 Q17.2656,482.4275 17.2656,479.3025 Q17.2656,476.1775 18.5781,474.5213 Q19.9063,472.865 22.4063,472.865 Q23.1094,472.865 23.75,473.0213 Q24.4063,473.1775 24.9688,473.4744 L24.9688,476.1931 Q24.3438,475.615 23.75,475.3494 Q23.1563,475.0681 22.5313,475.0681 Q21.1875,475.0681 20.5,476.1463 Q19.8125,477.2088 19.8125,479.3025 Q19.8125,481.3963 20.5,482.4744 Q21.1875,483.5369 22.5313,483.5369 Q23.1563,483.5369 23.75,483.2713 Q24.3438,482.99 24.9688,482.4119 L24.9688,485.1306 Z " fill="#000000"/><text fill="#000000" font-family="sans-serif" font-size="14" lengthAdjust="spacing" textLength="71.1279" x="36" y="484.3367">Incidencia</text><line style="stroke:#181818;stroke-width:0.5;" x1="8" x2="109.1279" y1="495.49" y2="495.49"/><text fill="#000000" font-family="sans-serif" font-size="14" lengthAdjust="spacing" textLength="29.8936" x="13" y="512.4851">Tipo</text><text fill="#000000" font-family="sans-serif" font-size="14" lengthAdjust="spacing" textLength="63.0137" x="13" y="528.782">Duracion</text><text fill="#000000" font-family="sans-serif" font-size="14" lengthAdjust="spacing" textLength="70.3965" x="13" y="545.0789">Severidad</text><line style="stroke:#181818;stroke-width:0.5;" x1="8" x2="109.1279" y1="552.3806" y2="552.3806"/></g><!--class Ruta--><g id="elem_Ruta"><rect codeLine="16" fill="#F1F1F1" height="80.5938" id="Ruta" rx="2.5" ry="2.5" style="stroke:#181818;stroke-width:0.5;" width="75.0137" x="137.06" y="305.89"/><ellipse cx="156.7151" cy="321.89" fill="#ADD1B2" rx="11" ry="11" style="stroke:#181818;stroke-width:1.0;"/><path d="M159.6839,327.5306 Q159.1058,327.8275 158.4651,327.9681 Q157.8245,328.1244 157.1214,328.1244 Q154.6214,328.1244 153.2933,326.4838 Q151.9808,324.8275 151.9808,321.7025 Q151.9808,318.5775 153.2933,316.9213 Q154.6214,315.265 157.1214,315.265 Q157.8245,315.265 158.4651,315.4213 Q159.1214,315.5775 159.6839,315.8744 L159.6839,318.5931 Q159.0589,318.015 158.4651,317.7494 Q157.8714,317.4681 157.2464,317.4681 Q155.9026,317.4681 155.2151,318.5463 Q154.5276,319.6088 154.5276,321.7025 Q154.5276,323.7963 155.2151,324.8744 Q155.9026,325.9369 157.2464,325.9369 Q157.8714,325.9369 158.4651,325.6713 Q159.0589,325.39 159.6839,324.8119 L159.6839,327.5306 Z " fill="#000000"/><text fill="#000000" font-family="sans-serif" font-size="14" lengthAdjust="spacing" textLength="32.6689" x="171.7496" y="326.7367">Ruta</text><line style="stroke:#181818;stroke-width:0.5;" x1="138.06" x2="211.0737" y1="337.89" y2="337.89"/><text fill="#000000" font-family="sans-serif" font-size="14" lengthAdjust="spacing" textLength="14.9092" x="143.06" y="354.8851">ID</text><text fill="#000000" font-family="sans-serif" font-size="14" lengthAdjust="spacing" textLength="63.0137" x="143.06" y="371.182">Duracion</text><line style="stroke:#181818;stroke-width:0.5;" x1="138.06" x2="211.0737" y1="378.4838" y2="378.4838"/></g><!--class Parada--><g id="elem_Parada"><rect codeLine="21" fill="#F1F1F1" height="80.5938" id="Parada" rx="2.5" ry="2.5" style="stroke:#181818;stroke-width:0.5;" width="80.8223" x="365.15" y="471.63"/><ellipse cx="380.15" cy="487.63" fill="#ADD1B2" rx="11" ry="11" style="stroke:#181818;stroke-width:1.0;"/><path d="M383.1188,493.2706 Q382.5406,493.5675 381.9,493.7081 Q381.2594,493.8644 380.5563,493.8644 Q378.0563,493.8644 376.7281,492.2238 Q375.4156,490.5675 375.4156,487.4425 Q375.4156,484.3175 376.7281,482.6613 Q378.0563,481.005 380.5563,481.005 Q381.2594,481.005 381.9,481.1613 Q382.5563,481.3175 383.1188,481.6144 L383.1188,484.3331 Q382.4938,483.755 381.9,483.4894 Q381.3063,483.2081 380.6813,483.2081 Q379.3375,483.2081 378.65,484.2863 Q377.9625,485.3488 377.9625,487.4425 Q377.9625,489.5363 378.65,490.6144 Q379.3375,491.6769 380.6813,491.6769 Q381.3063,491.6769 381.9,491.4113 Q382.4938,491.13 383.1188,490.5519 L383.1188,493.2706 Z " fill="#000000"/><text fill="#000000" font-family="sans-serif" font-size="14" lengthAdjust="spacing" textLength="48.8223" x="394.15" y="492.4767">Parada</text><line style="stroke:#181818;stroke-width:0.5;" x1="366.15" x2="444.9723" y1="503.63" y2="503.63"/><text fill="#000000" font-family="sans-serif" font-size="14" lengthAdjust="spacing" textLength="55.918" x="371.15" y="520.6251">Numero</text><text fill="#000000" font-family="sans-serif" font-size="14" lengthAdjust="spacing" textLength="68.3252" x="371.15" y="536.922">Ubicacion</text><line style="stroke:#181818;stroke-width:0.5;" x1="366.15" x2="444.9723" y1="544.2238" y2="544.2238"/></g><!--class Horario--><g id="elem_Horario"><rect codeLine="26" fill="#F1F1F1" height="80.5938" id="Horario" rx="2.5" ry="2.5" style="stroke:#181818;stroke-width:0.5;" width="83.6387" x="138.74" y="637.38"/><ellipse cx="153.74" cy="653.38" fill="#ADD1B2" rx="11" ry="11" style="stroke:#181818;stroke-width:1.0;"/><path d="M156.7088,659.0206 Q156.1306,659.3175 155.49,659.4581 Q154.8494,659.6144 154.1463,659.6144 Q151.6463,659.6144 150.3181,657.9738 Q149.0056,656.3175 149.0056,653.1925 Q149.0056,650.0675 150.3181,648.4113 Q151.6463,646.755 154.1463,646.755 Q154.8494,646.755 155.49,646.9113 Q156.1463,647.0675 156.7088,647.3644 L156.7088,650.0831 Q156.0838,649.505 155.49,649.2394 Q154.8963,648.9581 154.2713,648.9581 Q152.9275,648.9581 152.24,650.0363 Q151.5525,651.0988 151.5525,653.1925 Q151.5525,655.2863 152.24,656.3644 Q152.9275,657.4269 154.2713,657.4269 Q154.8963,657.4269 155.49,657.1613 Q156.0838,656.88 156.7088,656.3019 L156.7088,659.0206 Z " fill="#000000"/><text fill="#000000" font-family="sans-serif" font-size="14" lengthAdjust="spacing" textLength="51.6387" x="167.74" y="658.2267">Horario</text><line style="stroke:#181818;stroke-width:0.5;" x1="139.74" x2="221.3787" y1="669.38" y2="669.38"/><text fill="#000000" font-family="sans-serif" font-size="14" lengthAdjust="spacing" textLength="37.0439" x="144.74" y="686.3751">Inicio</text><text fill="#000000" font-family="sans-serif" font-size="14" lengthAdjust="spacing" textLength="33.2842" x="144.74" y="702.672">Final</text><line style="stroke:#181818;stroke-width:0.5;" x1="139.74" x2="221.3787" y1="709.9738" y2="709.9738"/></g><!--class Conductor--><g id="elem_Conductor"><rect codeLine="31" fill="#F1F1F1" height="80.5938" id="Conductor" rx="2.5" ry="2.5" style="stroke:#181818;stroke-width:0.5;" width="104.4814" x="247.32" y="305.89"/><ellipse cx="262.32" cy="321.89" fill="#ADD1B2" rx="11" ry="11" style="stroke:#181818;stroke-width:1.0;"/><path d="M265.2888,327.5306 Q264.7106,327.8275 264.07,327.9681 Q263.4294,328.1244 262.7263,328.1244 Q260.2263,328.1244 258.8981,326.4838 Q257.5856,324.8275 257.5856,321.7025 Q257.5856,318.5775 258.8981,316.9213 Q260.2263,315.265 262.7263,315.265 Q263.4294,315.265 264.07,315.4213 Q264.7263,315.5775 265.2888,315.8744 L265.2888,318.5931 Q264.6638,318.015 264.07,317.7494 Q263.4763,317.4681 262.8513,317.4681 Q261.5075,317.4681 260.82,318.5463 Q260.1325,319.6088 260.1325,321.7025 Q260.1325,323.7963 260.82,324.8744 Q261.5075,325.9369 262.8513,325.9369 Q263.4763,325.9369 264.07,325.6713 Q264.6638,325.39 265.2888,324.8119 L265.2888,327.5306 Z " fill="#000000"/><text fill="#000000" font-family="sans-serif" font-size="14" lengthAdjust="spacing" textLength="72.4814" x="276.32" y="326.7367">Conductor</text><line style="stroke:#181818;stroke-width:0.5;" x1="248.32" x2="350.8014" y1="337.89" y2="337.89"/><text fill="#000000" font-family="sans-serif" font-size="14" lengthAdjust="spacing" textLength="14.9092" x="253.32" y="354.8851">ID</text><text fill="#000000" font-family="sans-serif" font-size="14" lengthAdjust="spacing" textLength="55.9316" x="253.32" y="371.182">Nombre</text><line style="stroke:#181818;stroke-width:0.5;" x1="248.32" x2="350.8014" y1="378.4838" y2="378.4838"/></g><!--class Persona--><g id="elem_Persona"><rect codeLine="36" fill="#F1F1F1" height="48" id="Persona" rx="2.5" ry="2.5" style="stroke:#181818;stroke-width:0.5;" width="88.123" x="379.5" y="156.45"/><ellipse cx="394.5" cy="172.45" fill="#ADD1B2" rx="11" ry="11" style="stroke:#181818;stroke-width:1.0;"/><path d="M397.4688,178.0906 Q396.8906,178.3875 396.25,178.5281 Q395.6094,178.6844 394.9063,178.6844 Q392.4063,178.6844 391.0781,177.0438 Q389.7656,175.3875 389.7656,172.2625 Q389.7656,169.1375 391.0781,167.4813 Q392.4063,165.825 394.9063,165.825 Q395.6094,165.825 396.25,165.9813 Q396.9063,166.1375 397.4688,166.4344 L397.4688,169.1531 Q396.8438,168.575 396.25,168.3094 Q395.6563,168.0281 395.0313,168.0281 Q393.6875,168.0281 393,169.1063 Q392.3125,170.1688 392.3125,172.2625 Q392.3125,174.3563 393,175.4344 Q393.6875,176.4969 395.0313,176.4969 Q395.6563,176.4969 396.25,176.2313 Q396.8438,175.95 397.4688,175.3719 L397.4688,178.0906 Z " fill="#000000"/><text fill="#000000" font-family="sans-serif" font-size="14" lengthAdjust="spacing" textLength="56.123" x="408.5" y="177.2967">Persona</text><line style="stroke:#181818;stroke-width:0.5;" x1="380.5" x2="466.623" y1="188.45" y2="188.45"/><line style="stroke:#181818;stroke-width:0.5;" x1="380.5" x2="466.623" y1="196.45" y2="196.45"/></g><!--class Pasajero--><g id="elem_Pasajero"><rect codeLine="39" fill="#F1F1F1" height="80.5938" id="Pasajero" rx="2.5" ry="2.5" style="stroke:#181818;stroke-width:0.5;" width="91.7188" x="417.7" y="305.89"/><ellipse cx="432.7" cy="321.89" fill="#ADD1B2" rx="11" ry="11" style="stroke:#181818;stroke-width:1.0;"/><path d="M435.6688,327.5306 Q435.0906,327.8275 434.45,327.9681 Q433.8094,328.1244 433.1063,328.1244 Q430.6063,328.1244 429.2781,326.4838 Q427.9656,324.8275 427.9656,321.7025 Q427.9656,318.5775 429.2781,316.9213 Q430.6063,315.265 433.1063,315.265 Q433.8094,315.265 434.45,315.4213 Q435.1063,315.5775 435.6688,315.8744 L435.6688,318.5931 Q435.0438,318.015 434.45,317.7494 Q433.8563,317.4681 433.2313,317.4681 Q431.8875,317.4681 431.2,318.5463 Q430.5125,319.6088 430.5125,321.7025 Q430.5125,323.7963 431.2,324.8744 Q431.8875,325.9369 433.2313,325.9369 Q433.8563,325.9369 434.45,325.6713 Q435.0438,325.39 435.6688,324.8119 L435.6688,327.5306 Z " fill="#000000"/><text fill="#000000" font-family="sans-serif" font-size="14" lengthAdjust="spacing" textLength="59.7188" x="446.7" y="326.7367">Pasajero</text><line style="stroke:#181818;stroke-width:0.5;" x1="418.7" x2="508.4188" y1="337.89" y2="337.89"/><text fill="#000000" font-family="sans-serif" font-size="14" lengthAdjust="spacing" textLength="55.9316" x="423.7" y="354.8851">Nombre</text><text fill="#000000" font-family="sans-serif" font-size="14" lengthAdjust="spacing" textLength="38.8076" x="423.7" y="371.182">Saldo</text><line style="stroke:#181818;stroke-width:0.5;" x1="418.7" x2="508.4188" y1="378.4838" y2="378.4838"/></g><!--class Tarifa--><g id="elem_Tarifa"><rect codeLine="44" fill="#F1F1F1" height="80.5938" id="Tarifa" rx="2.5" ry="2.5" style="stroke:#181818;stroke-width:0.5;" width="106.1172" x="524.51" y="471.63"/><ellipse cx="554.7349" cy="487.63" fill="#ADD1B2" rx="11" ry="11" style="stroke:#181818;stroke-width:1.0;"/><path d="M557.7036,493.2706 Q557.1255,493.5675 556.4849,493.7081 Q555.8442,493.8644 555.1411,493.8644 Q552.6411,493.8644 551.313,492.2238 Q550.0005,490.5675 550.0005,487.4425 Q550.0005,484.3175 551.313,482.6613 Q552.6411,481.005 555.1411,481.005 Q555.8442,481.005 556.4849,481.1613 Q557.1411,481.3175 557.7036,481.6144 L557.7036,484.3331 Q557.0786,483.755 556.4849,483.4894 Q555.8911,483.2081 555.2661,483.2081 Q553.9224,483.2081 553.2349,484.2863 Q552.5474,485.3488 552.5474,487.4425 Q552.5474,489.5363 553.2349,490.6144 Q553.9224,491.6769 555.2661,491.6769 Q555.8911,491.6769 556.4849,491.4113 Q557.0786,491.13 557.7036,490.5519 L557.7036,493.2706 Z " fill="#000000"/><text fill="#000000" font-family="sans-serif" font-size="14" lengthAdjust="spacing" textLength="40.2842" x="572.1182" y="492.4767">Tarifa</text><line style="stroke:#181818;stroke-width:0.5;" x1="525.51" x2="629.6272" y1="503.63" y2="503.63"/><text fill="#000000" font-family="sans-serif" font-size="14" lengthAdjust="spacing" textLength="42.9639" x="530.51" y="520.6251">Precio</text><text fill="#000000" font-family="sans-serif" font-size="14" lengthAdjust="spacing" textLength="94.1172" x="530.51" y="536.922">Metodo_pago</text><line style="stroke:#181818;stroke-width:0.5;" x1="525.51" x2="629.6272" y1="544.2238" y2="544.2238"/></g><!--link Flota to Bus--><g id="link_Flota_Bus"><path codeLine="49" d="M211.56,55.36 C211.56,75.83 211.56,100.21 211.56,125.78 " fill="none" id="Flota-to-Bus" style="stroke:#181818;stroke-width:1.0;"/><polygon fill="#181818" points="211.56,131.78,215.56,122.78,211.56,126.78,207.56,122.78,211.56,131.78" style="stroke:#181818;stroke-width:1.0;"/><text fill="#000000" font-family="sans-serif" font-size="13" lengthAdjust="spacing" textLength="32.9443" x="212.56" y="98.0669">tiene</text></g><!--link Bus to Incidencia--><g id="link_Bus_Incidencia"><path codeLine="50" d="M179.81,203.07 C150.11,225.18 107.19,262.39 85.56,305.89 C60.87,355.57 56.1306,413.96 56.2706,457.22 " fill="none" id="Bus-to-Incidencia" style="stroke:#181818;stroke-width:1.0;"/><polygon fill="#181818" points="56.29,463.22,60.2609,454.2071,56.2738,458.22,52.2609,454.233,56.29,463.22" style="stroke:#181818;stroke-width:1.0;"/><text fill="#000000" font-family="sans-serif" font-size="13" lengthAdjust="spacing" textLength="32.9443" x="86.56" y="350.7569">tiene</text></g><!--link Bus to Ruta--><g id="link_Bus_Ruta"><path codeLine="51" d="M182.46,229.22 C177.96,238.74 173.99,248.89 171.56,258.89 C167.92,273.9 167.2746,284.8144 168.3046,299.6544 " fill="none" id="Bus-to-Ruta" style="stroke:#181818;stroke-width:1.0;"/><polygon fill="#181818" points="168.72,305.64,172.0872,296.3846,168.3738,300.652,164.1064,296.9386,168.72,305.64" style="stroke:#181818;stroke-width:1.0;"/><text fill="#000000" font-family="sans-serif" font-size="13" lengthAdjust="spacing" textLength="32.9443" x="172.56" y="271.9569">tiene</text></g><!--link Bus to Conductor--><g id="link_Bus_Conductor"><path codeLine="52" d="M225.51,229.32 C230.83,244.65 237.57,261.39 245.56,275.89 C251.16,286.04 254.5574,291.5046 261.6774,300.8646 " fill="none" id="Bus-to-Conductor" style="stroke:#181818;stroke-width:1.0;"/><polygon fill="#181818" points="265.31,305.64,263.0447,296.0552,262.2829,301.6605,256.6775,300.8986,265.31,305.64" style="stroke:#181818;stroke-width:1.0;"/><text fill="#000000" font-family="sans-serif" font-size="13" lengthAdjust="spacing" textLength="94.8467" x="246.56" y="271.9569">conducido_por</text></g><!--link Bus to Tarifa--><g id="link_Bus_Tarifa"><path codeLine="53" d="M243.26,192.21 C273.48,202.3 320.37,217.49 361.56,228.89 C417.04,244.25 438.67,228.51 487.56,258.89 C559.59,303.64 574.3833,406.6864 577.1033,465.6064 " fill="none" id="Bus-to-Tarifa" style="stroke:#181818;stroke-width:1.0;"/><polygon fill="#181818" points="577.38,471.6,580.9607,462.4251,577.1494,466.6053,572.9692,462.794,577.38,471.6" style="stroke:#181818;stroke-width:1.0;"/><text fill="#000000" font-family="sans-serif" font-size="13" lengthAdjust="spacing" textLength="32.9443" x="566.56" y="350.7569">tiene</text></g><!--link Ruta to Parada--><g id="link_Ruta_Parada"><path codeLine="54" d="M212.42,374.27 C218.16,378.37 224.02,382.54 229.56,386.49 C275.93,419.44 324.3775,453.6708 360.0775,478.8608 " fill="none" id="Ruta-to-Parada" style="stroke:#181818;stroke-width:1.0;"/><polygon fill="#181818" points="364.98,482.32,359.9324,473.8629,360.8946,479.4373,355.3202,480.3995,364.98,482.32" style="stroke:#181818;stroke-width:1.0;"/><text fill="#000000" font-family="sans-serif" font-size="13" lengthAdjust="spacing" textLength="32.9443" x="292.56" y="429.5569">tiene</text></g><!--link Ruta to Horario--><g id="link_Ruta_Horario"><path codeLine="55" d="M175.29,386.93 C176.44,450.35 178.5811,567.701 179.7311,631.051 " fill="none" id="Ruta-to-Horario" style="stroke:#181818;stroke-width:1.0;"/><polygon fill="#181818" points="179.84,637.05,183.676,627.9789,179.7492,632.0508,175.6773,628.1241,179.84,637.05" style="stroke:#181818;stroke-width:1.0;"/><text fill="#000000" font-family="sans-serif" font-size="13" lengthAdjust="spacing" textLength="32.9443" x="179.56" y="516.4969">tiene</text></g><!--link Incidencia to Horario--><g id="link_Incidencia_Horario"><path codeLine="56" d="M82.66,560.55 C91.3,576.02 101.62,592.92 112.56,607.38 C120.29,617.59 125.2689,623.5274 134.2889,632.8974 " fill="none" id="Incidencia-to-Horario" style="stroke:#181818;stroke-width:1.0;"/><polygon fill="#181818" points="138.45,637.22,135.09,627.962,134.9824,633.6178,129.3266,633.5102,138.45,637.22" style="stroke:#181818;stroke-width:1.0;"/><text fill="#000000" font-family="sans-serif" font-size="13" lengthAdjust="spacing" textLength="40.752" x="113.56" y="603.4469">afecta</text></g><!--link Persona to Conductor--><g id="link_Persona_Conductor"><path codeLine="57" d="M405.8,204.91 C385.91,231.17 356.9723,269.3868 333.1323,300.8668 " fill="none" id="Persona-to-Conductor" style="stroke:#181818;stroke-width:1.0;"/><polygon fill="#181818" points="329.51,305.65,338.1323,300.8901,332.5286,301.664,331.7547,296.0604,329.51,305.65" style="stroke:#181818;stroke-width:1.0;"/><text fill="#000000" font-family="sans-serif" font-size="13" lengthAdjust="spacing" textLength="37.7495" x="362.56" y="271.9569">es_un</text></g><!--link Persona to Pasajero--><g id="link_Persona_Pasajero"><path codeLine="58" d="M429.29,204.91 C435.71,231.17 444.7862,268.3414 452.4762,299.8214 " fill="none" id="Persona-to-Pasajero" style="stroke:#181818;stroke-width:1.0;"/><polygon fill="#181818" points="453.9,305.65,455.65,295.9579,452.7135,300.7928,447.8785,297.8563,453.9,305.65" style="stroke:#181818;stroke-width:1.0;"/><text fill="#000000" font-family="sans-serif" font-size="13" lengthAdjust="spacing" textLength="32.9443" x="446.56" y="271.9569">tiene</text></g><!--link Pasajero to Tarifa--><g id="link_Pasajero_Tarifa"><path codeLine="59" d="M491.16,386.83 C509.02,412.48 528.7532,440.8149 546.5932,466.4549 " fill="none" id="Pasajero-to-Tarifa" style="stroke:#181818;stroke-width:1.0;"/><polygon fill="#181818" points="550.02,471.38,548.1632,461.7078,547.1643,467.2757,541.5963,466.2769,550.02,471.38" style="stroke:#181818;stroke-width:1.0;"/><text fill="#000000" font-family="sans-serif" font-size="13" lengthAdjust="spacing" textLength="32.4365" x="521.56" y="429.5569">paga</text></g><!--link Conductor to Horario--><g id="link_Conductor_Horario"><path codeLine="60" d="M285.21,386.93 C262.31,450.35 219.7874,568.0565 196.9174,631.4065 " fill="none" id="Conductor-to-Horario" style="stroke:#181818;stroke-width:1.0;"/><polygon fill="#181818" points="194.88,637.05,201.6984,629.943,196.5778,632.3471,194.1737,627.2265,194.88,637.05" style="stroke:#181818;stroke-width:1.0;"/><text fill="#000000" font-family="sans-serif" font-size="13" lengthAdjust="spacing" textLength="32.9443" x="256.56" y="516.4969">tiene</text></g><!--link Pasajero to Parada--><g id="link_Pasajero_Parada"><path codeLine="61" d="M429.46,386.85 C423.16,396.06 417.38,406.19 413.56,416.49 C407.16,433.77 405.0381,448.0136 404.4381,465.3036 " fill="none" id="Pasajero-to-Parada" style="stroke:#181818;stroke-width:1.0;"/><polygon fill="#181818" points="404.23,471.3,408.5397,462.4441,404.4034,466.303,400.5445,462.1667,404.23,471.3" style="stroke:#181818;stroke-width:1.0;"/><text fill="#000000" font-family="sans-serif" font-size="13" lengthAdjust="spacing" textLength="91.4951" x="414.56" y="429.5569">suben y bajan</text></g><!--link Ruta to Incidencia--><g id="link_Ruta_Incidencia"><path codeLine="62" d="M142.88,386.71 C135.41,396.34 127.58,406.69 120.56,416.49 C109.83,431.48 101.8998,443.1658 92.0098,458.3158 " fill="none" id="Ruta-to-Incidencia" style="stroke:#181818;stroke-width:1.0;"/><polygon fill="#181818" points="88.73,463.34,96.9992,457.9902,91.4632,459.1532,90.3003,453.6171,88.73,463.34" style="stroke:#181818;stroke-width:1.0;"/><text fill="#000000" font-family="sans-serif" font-size="13" lengthAdjust="spacing" textLength="32.9316" x="121.56" y="429.5569">sufre</text></g><!--SRC=[RL71RiCW3BtdAr3l_O4UTbYhQZsqghRkN3dWJ5GKLmOcJTF-VOI44BBbG8pzdltya0QS4tj37iHtyzCqCYMUWujN4R_3BlsEfD1G2hTaY0lqOALM60yO6HVz682xm20rsNHvmqzahK0LvclmK4-P61Fc30mgeqxXZZpqVc-rN41VY84rvOvMnt8Azzg2ARWjMHMa9wvdd-ZUCiuc8pkobIjdS72B2hASWP6s0wEe02zHI9TLdncpaYDwKdHzm4S23xQlrq_9xutm6YqsVTpdPiOkIycvPRBijH4onRgV5Tyg8qPPcPYwzFdHv3_vx6Wkp1JLPUXGUcYoPKirwAx1LjN9oTnwIbGwer7Gb4x_QQg8qo8h5rgquakqS0ExAYjLfhhGCVu2]--></g></svg>