<svg xmlns="http://www.w3.org/2000/svg" xmlns:xlink="http://www.w3.org/1999/xlink" contentStyleType="text/css" height="776px" preserveAspectRatio="none" style="width:259px;height:776px;background:#FFFFFF;" version="1.1" viewBox="0 0 259 776" width="259px" zoomAndPan="magnify"><defs/><g><g id="bus"><rect fill="#F1F1F1" height="50" rx="12.5" ry="12.5" style="stroke:#181818;stroke-width:0.5;" width="50" x="101.37" y="86"/><line style="stroke:#181818;stroke-width:0.5;" x1="101.37" x2="151.37" y1="112.2969" y2="112.2969"/><text fill="#000000" font-family="sans-serif" font-size="14" lengthAdjust="spacing" textLength="25.7715" x="113.4843" y="103.9951">Bus</text></g><g id="inicia_jornada"><rect fill="#F1F1F1" height="50" rx="12.5" ry="12.5" style="stroke:#181818;stroke-width:0.5;" width="114.6367" x="69.05" y="196"/><line style="stroke:#181818;stroke-width:0.5;" x1="69.05" x2="183.6867" y1="222.2969" y2="222.2969"/><text fill="#000000" font-family="sans-serif" font-size="14" lengthAdjust="spacing" textLength="94.6367" x="79.05" y="213.9951">Inicia jornada</text></g><path d="M19.5,306 L233.2308,306 A12.5,12.5 0 0 1 245.7308,318.5 L245.7308,332.2969 L7,332.2969 L7,318.5 A12.5,12.5 0 0 1 19.5,306 " fill="#F1F1F1" style="stroke:#F1F1F1;stroke-width:1.0;"/><rect fill="none" height="272.2969" rx="12.5" ry="12.5" style="stroke:#181818;stroke-width:0.5;" width="238.7308" x="7" y="306"/><line style="stroke:#181818;stroke-width:0.5;" x1="7" x2="245.7308" y1="332.2969" y2="332.2969"/><text fill="#000000" font-family="sans-serif" font-size="14" lengthAdjust="spacing" textLength="32.6689" x="110.0309" y="323.9951">Ruta</text><g id="ruta.inicia_ruta"><rect fill="#F1F1F1" height="50" rx="12.5" ry="12.5" style="stroke:#181818;stroke-width:0.5;" width="90.2051" x="96.76" y="344.2969"/><line style="stroke:#181818;stroke-width:0.5;" x1="96.76" x2="186.9651" y1="370.5937" y2="370.5937"/><text fill="#000000" font-family="sans-serif" font-size="14" lengthAdjust="spacing" textLength="70.2051" x="106.76" y="362.292">Inicia ruta</text></g><g id="ruta.siguiente_parada"><rect fill="#F1F1F1" height="50" rx="12.5" ry="12.5" style="stroke:#181818;stroke-width:0.5;" width="139.7314" x="19" y="431.2969"/><line style="stroke:#181818;stroke-width:0.5;" x1="19" x2="158.7314" y1="457.5937" y2="457.5937"/><text fill="#000000" font-family="sans-serif" font-size="14" lengthAdjust="spacing" textLength="119.7314" x="29" y="449.292">Siguiente parada</text></g><g id="ruta.finaliza_ruta"><rect fill="#F1F1F1" height="50" rx="12.5" ry="12.5" style="stroke:#181818;stroke-width:0.5;" width="106.249" x="88.74" y="518.2969"/><line style="stroke:#181818;stroke-width:0.5;" x1="88.74" x2="194.989" y1="544.5938" y2="544.5938"/><text fill="#000000" font-family="sans-serif" font-size="14" lengthAdjust="spacing" textLength="86.249" x="98.74" y="536.292">Finaliza ruta</text></g><!--link inicia_ruta to siguiente_parada--><g id="link_inicia_ruta_siguiente_parada"><path d="M126.82,394.4269 C119.72,405.8169 114.4356,414.2861 107.3056,425.7161 " fill="none" id="inicia_ruta-to-siguiente_parada" style="stroke:#181818;stroke-width:1.0;"/><polygon fill="#181818" points="104.13,430.8069,112.2872,425.2878,106.7763,426.5646,105.4996,421.0537,104.13,430.8069" style="stroke:#181818;stroke-width:1.0;"/></g><!--link siguiente_parada to finaliza_ruta--><g id="link_siguiente_parada_finaliza_ruta"><path d="M103.91,481.4269 C111.01,492.8169 116.2944,501.2861 123.4244,512.7161 " fill="none" id="siguiente_parada-to-finaliza_ruta" style="stroke:#181818;stroke-width:1.0;"/><polygon fill="#181818" points="126.6,517.8069,125.2304,508.0537,123.9537,513.5646,118.4428,512.2878,126.6,517.8069" style="stroke:#181818;stroke-width:1.0;"/></g><!--link finaliza_ruta to inicia_ruta--><g id="link_finaliza_ruta_inicia_ruta"><path d="M154.98,517.8069 C160.08,506.9469 165.31,493.8169 167.87,481.2969 C172.31,459.5269 172.31,453.0669 167.87,431.2969 C165.31,418.7769 162.6304,411.0778 157.5304,400.2178 " fill="none" id="finaliza_ruta-to-inicia_ruta" style="stroke:#181818;stroke-width:1.0;"/><polygon fill="#181818" points="154.98,394.7869,155.185,404.6336,157.1054,399.3127,162.4263,401.233,154.98,394.7869" style="stroke:#181818;stroke-width:1.0;"/><text fill="#000000" font-family="sans-serif" font-size="13" lengthAdjust="spacing" textLength="62.8608" x="172.87" y="460.8638">Descanso</text></g><g id="finaliza_jornada"><rect fill="#F1F1F1" height="50" rx="12.5" ry="12.5" style="stroke:#181818;stroke-width:0.5;" width="130.6807" x="61.03" y="638.3"/><line style="stroke:#181818;stroke-width:0.5;" x1="61.03" x2="191.7107" y1="664.5969" y2="664.5969"/><text fill="#000000" font-family="sans-serif" font-size="14" lengthAdjust="spacing" textLength="110.6807" x="71.03" y="656.2951">Finaliza jornada</text></g><ellipse cx="126.37" cy="16" fill="#222222" rx="10" ry="10" style="stroke:#222222;stroke-width:1.0;"/><ellipse cx="126.37" cy="759.3" fill="none" rx="11" ry="11" style="stroke:#222222;stroke-width:1.0;"/><ellipse cx="126.37" cy="759.3" fill="#222222" rx="6" ry="6" style="stroke:#222222;stroke-width:1.0;"/><!--link *start* to bus--><g id="link_*start*_bus"><path d="M126.37,26.26 C126.37,39.95 126.37,60.07 126.37,79.52 " fill="none" id="*start*-to-bus" style="stroke:#181818;stroke-width:1.0;"/><polygon fill="#181818" points="126.37,85.52,130.37,76.52,126.37,80.52,122.37,76.52,126.37,85.52" style="stroke:#181818;stroke-width:1.0;"/></g><!--link bus to inicia_jornada--><g id="link_bus_inicia_jornada"><path d="M126.37,136.24 C126.37,154.03 126.37,172.08 126.37,189.85 " fill="none" id="bus-to-inicia_jornada" style="stroke:#181818;stroke-width:1.0;"/><polygon fill="#181818" points="126.37,195.85,130.37,186.85,126.37,190.85,122.37,186.85,126.37,195.85" style="stroke:#181818;stroke-width:1.0;"/></g><!--link inicia_jornada to ruta--><g id="link_inicia_jornada_ruta"><path d="M126.37,246.29 C126.37,261.67 126.37,276.92 126.37,299.75 " fill="none" id="inicia_jornada-to-ruta" style="stroke:#181818;stroke-width:1.0;"/><polygon fill="#181818" points="126.37,305.75,130.37,296.75,126.37,300.75,122.37,296.75,126.37,305.75" style="stroke:#181818;stroke-width:1.0;"/></g><!--link ruta to finaliza_jornada--><g id="link_ruta_finaliza_jornada"><path d="M126.37,578.51 C126.37,601.35 126.37,616.6 126.37,631.98 " fill="none" id="ruta-to-finaliza_jornada" style="stroke:#181818;stroke-width:1.0;"/><polygon fill="#181818" points="126.37,637.98,130.37,628.98,126.37,632.98,122.37,628.98,126.37,637.98" style="stroke:#181818;stroke-width:1.0;"/></g><!--link finaliza_jornada to *end*--><g id="link_finaliza_jornada_*end*"><path d="M126.37,688.51 C126.37,707.87 126.37,728.05 126.37,742.2 " fill="none" id="finaliza_jornada-to-*end*" style="stroke:#181818;stroke-width:1.0;"/><polygon fill="#181818" points="126.37,748.2,130.37,739.2,126.37,743.2,122.37,739.2,126.37,748.2" style="stroke:#181818;stroke-width:1.0;"/></g><!--SRC=[TP312i8m38RlVOgmex0NyE11HF2gHv4HPvM8TDAi5yLtjylMcMvOABHV_tu9uHPR2yKwS078S0vik4SxHpKXt1lly8BoIeAg0QNWFhJziuy7U1k8AtVub1W4tLt73dGBP5qyFj6dOfnWrKFzOKiE7_HIvkj0VcvL2yfozSStWPASkp8Y6MrVmiPoZOuRyp7J3lNyHasQe3akJgBhvXwtLgTCVfM4z3MsChDEWQHYfIy0]--></g></svg>