<svg xmlns="http://www.w3.org/2000/svg" xmlns:xlink="http://www.w3.org/1999/xlink" contentStyleType="text/css" height="634px" preserveAspectRatio="none" style="width:835px;height:634px;background:#FFFFFF;" version="1.1" viewBox="0 0 835 634" width="835px" zoomAndPan="magnify"><defs/><g><g id="elem_flota"><rect fill="#F1F1F1" height="36.2969" style="stroke:#181818;stroke-width:0.5;" width="85.4287" x="294.21" y="7"/><text fill="#000000" font-family="sans-serif" font-size="14" lengthAdjust="spacing" textLength="71.4287" x="301.21" y="21.9951">Flota: TUS</text><line style="stroke:#181818;stroke-width:0.5;" x1="295.21" x2="378.6387" y1="27.2969" y2="27.2969"/></g><g id="elem_bus"><rect fill="#F1F1F1" height="77.1875" style="stroke:#181818;stroke-width:0.5;" width="125.3262" x="274.26" y="120.29"/><text fill="#000000" font-family="sans-serif" font-size="14" lengthAdjust="spacing" textLength="69.3574" x="302.2444" y="135.2851">Bus: 24c1</text><line style="stroke:#181818;stroke-width:0.5;" x1="275.26" x2="398.5862" y1="140.5869" y2="140.5869"/><text fill="#000000" font-family="sans-serif" font-size="14" lengthAdjust="spacing" textLength="44.4473" x="280.26" y="157.582">ID = 3</text><text fill="#000000" font-family="sans-serif" font-size="14" lengthAdjust="spacing" textLength="113.3262" x="280.26" y="173.8789">Modelo = 5d3cc</text><text fill="#000000" font-family="sans-serif" font-size="14" lengthAdjust="spacing" textLength="86.8711" x="280.26" y="190.1757">Color = Azul</text></g><g id="elem_incidencia"><rect fill="#F1F1F1" height="77.1875" style="stroke:#181818;stroke-width:0.5;" width="173.8408" x="7" y="412.37"/><text fill="#000000" font-family="sans-serif" font-size="14" lengthAdjust="spacing" textLength="151.1836" x="18.3286" y="427.3651">Incidencia: incidencia</text><line style="stroke:#181818;stroke-width:0.5;" x1="8" x2="179.8408" y1="432.6669" y2="432.6669"/><text fill="#000000" font-family="sans-serif" font-size="14" lengthAdjust="spacing" textLength="161.8408" x="13" y="449.662">Tipo = atropellamiento</text><text fill="#000000" font-family="sans-serif" font-size="14" lengthAdjust="spacing" textLength="136.0693" x="13" y="465.9589">Duracion = 3 horas</text><text fill="#000000" font-family="sans-serif" font-size="14" lengthAdjust="spacing" textLength="131.1475" x="13" y="482.2557">Severidad = grave</text></g><g id="elem_ruta"><rect fill="#F1F1F1" height="60.8906" style="stroke:#181818;stroke-width:0.5;" width="148.0693" x="151.89" y="274.48"/><text fill="#000000" font-family="sans-serif" font-size="14" lengthAdjust="spacing" textLength="50.415" x="200.7171" y="289.4751">Ruta: a</text><line style="stroke:#181818;stroke-width:0.5;" x1="152.89" x2="298.9593" y1="294.7769" y2="294.7769"/><text fill="#000000" font-family="sans-serif" font-size="14" lengthAdjust="spacing" textLength="69.9385" x="157.89" y="311.772">ID = b3c1</text><text fill="#000000" font-family="sans-serif" font-size="14" lengthAdjust="spacing" textLength="136.0693" x="157.89" y="328.0689">Duracion = 8 horas</text></g><g id="elem_parada"><rect fill="#F1F1F1" height="60.8906" style="stroke:#181818;stroke-width:0.5;" width="148.6504" x="471.6" y="420.52"/><text fill="#000000" font-family="sans-serif" font-size="14" lengthAdjust="spacing" textLength="107.2559" x="492.2973" y="435.5151">Parada: parada</text><line style="stroke:#181818;stroke-width:0.5;" x1="472.6" x2="619.2504" y1="440.8169" y2="440.8169"/><text fill="#000000" font-family="sans-serif" font-size="14" lengthAdjust="spacing" textLength="94.3633" x="477.6" y="457.812">Numero = 10</text><text fill="#000000" font-family="sans-serif" font-size="14" lengthAdjust="spacing" textLength="136.6504" x="477.6" y="474.1089">Ubicacion = UNEAT</text></g><g id="elem_horario"><rect fill="#F1F1F1" height="60.8906" style="stroke:#181818;stroke-width:0.5;" width="131.9268" x="184.96" y="566.56"/><text fill="#000000" font-family="sans-serif" font-size="14" lengthAdjust="spacing" textLength="117.9268" x="191.96" y="581.5551">Horario: ma&#241;ana</text><line style="stroke:#181818;stroke-width:0.5;" x1="185.96" x2="315.8868" y1="586.8569" y2="586.8569"/><text fill="#000000" font-family="sans-serif" font-size="14" lengthAdjust="spacing" textLength="88.7988" x="190.96" y="603.852">Inicio = 8am</text><text fill="#000000" font-family="sans-serif" font-size="14" lengthAdjust="spacing" textLength="85.3467" x="190.96" y="620.1489">Final = 2pm</text></g><g id="elem_conductor"><rect fill="#F1F1F1" height="60.8906" style="stroke:#181818;stroke-width:0.5;" width="166.0518" x="334.89" y="274.48"/><text fill="#000000" font-family="sans-serif" font-size="14" lengthAdjust="spacing" textLength="152.0518" x="341.89" y="289.4751">Conductor: conductor</text><line style="stroke:#181818;stroke-width:0.5;" x1="335.89" x2="499.9418" y1="294.7769" y2="294.7769"/><text fill="#000000" font-family="sans-serif" font-size="14" lengthAdjust="spacing" textLength="77.3076" x="340.89" y="311.772">ID = 88cz6</text><text fill="#000000" font-family="sans-serif" font-size="14" lengthAdjust="spacing" textLength="101.4453" x="340.89" y="328.0689">Nombre = Javi</text></g><g id="elem_persona"><rect fill="#F1F1F1" height="36.2969" style="stroke:#181818;stroke-width:0.5;" width="135.8574" x="456.99" y="140.74"/><text fill="#000000" font-family="sans-serif" font-size="14" lengthAdjust="spacing" textLength="121.8574" x="463.99" y="155.7351">Persona: persona</text><line style="stroke:#181818;stroke-width:0.5;" x1="457.99" x2="591.8474" y1="161.0369" y2="161.0369"/></g><g id="elem_pasajero"><rect fill="#F1F1F1" height="60.8906" style="stroke:#181818;stroke-width:0.5;" width="143.0488" x="536.4" y="274.48"/><text fill="#000000" font-family="sans-serif" font-size="14" lengthAdjust="spacing" textLength="129.0488" x="543.4" y="289.4751">Pasajero: pasajero</text><line style="stroke:#181818;stroke-width:0.5;" x1="537.4" x2="678.4488" y1="294.7769" y2="294.7769"/><text fill="#000000" font-family="sans-serif" font-size="14" lengthAdjust="spacing" textLength="126.7793" x="542.4" y="311.772">Nombre = Alfredo</text><text fill="#000000" font-family="sans-serif" font-size="14" lengthAdjust="spacing" textLength="99.5176" x="542.4" y="328.0689">Saldo = 1.79&#8364;</text></g><g id="elem_tarifa"><rect fill="#F1F1F1" height="60.8906" style="stroke:#181818;stroke-width:0.5;" width="165.5557" x="663.14" y="420.52"/><text fill="#000000" font-family="sans-serif" font-size="14" lengthAdjust="spacing" textLength="86.6729" x="702.5814" y="435.5151">Tarifa: tarifa</text><line style="stroke:#181818;stroke-width:0.5;" x1="664.14" x2="827.6957" y1="440.8169" y2="440.8169"/><text fill="#000000" font-family="sans-serif" font-size="14" lengthAdjust="spacing" textLength="103.6738" x="669.14" y="457.812">Precio = 1.80&#8364;</text><text fill="#000000" font-family="sans-serif" font-size="14" lengthAdjust="spacing" textLength="153.5557" x="669.14" y="474.1089">Metodo_pago = Saldo</text></g><!--link flota to bus--><g id="link_flota_bus"><path codeLine="47" d="M336.92,43.64 C336.92,63.03 336.92,88.88 336.92,114.03 " fill="none" id="flota-to-bus" style="stroke:#181818;stroke-width:1.0;"/><polygon fill="#181818" points="336.92,120.03,340.92,111.03,336.92,115.03,332.92,111.03,336.92,120.03" style="stroke:#181818;stroke-width:1.0;"/><text fill="#000000" font-family="sans-serif" font-size="13" lengthAdjust="spacing" textLength="32.9443" x="337.92" y="86.3569">tiene</text></g><!--link bus to incidencia--><g id="link_bus_incidencia"><path codeLine="48" d="M273.95,171.47 C217.82,185.44 138.71,214.93 99.92,274.48 C73.22,315.48 76.5512,368.1496 83.5612,406.1396 " fill="none" id="bus-to-incidencia" style="stroke:#181818;stroke-width:1.0;"/><polygon fill="#181818" points="84.65,412.04,86.9505,402.4636,83.7427,407.123,79.0833,403.9152,84.65,412.04" style="stroke:#181818;stroke-width:1.0;"/><text fill="#000000" font-family="sans-serif" font-size="13" lengthAdjust="spacing" textLength="32.9443" x="100.92" y="309.4969">tiene</text></g><!--link bus to ruta--><g id="link_bus_ruta"><path codeLine="49" d="M307.76,197.73 C289.39,221.57 269.6622,247.1573 252.6022,269.2973 " fill="none" id="bus-to-ruta" style="stroke:#181818;stroke-width:1.0;"/><polygon fill="#181818" points="248.94,274.05,257.6018,269.3624,251.9918,270.0894,251.2648,264.4795,248.94,274.05" style="stroke:#181818;stroke-width:1.0;"/><text fill="#000000" font-family="sans-serif" font-size="13" lengthAdjust="spacing" textLength="32.9443" x="285.92" y="240.5469">tiene</text></g><!--link bus to conductor--><g id="link_bus_conductor"><path codeLine="50" d="M350.18,197.97 C356.02,212.9 363.47,229.91 371.92,244.48 C377.81,254.64 381.5549,260.2828 388.7149,269.4428 " fill="none" id="bus-to-conductor" style="stroke:#181818;stroke-width:1.0;"/><polygon fill="#181818" points="392.41,274.17,390.0189,264.6158,389.3308,270.2307,383.7159,269.5426,392.41,274.17" style="stroke:#181818;stroke-width:1.0;"/><text fill="#000000" font-family="sans-serif" font-size="13" lengthAdjust="spacing" textLength="94.8467" x="372.92" y="240.5469">conducido_por</text></g><!--link bus to tarifa--><g id="link_bus_tarifa"><path codeLine="51" d="M399.81,184.85 C412.93,189.49 426.77,193.97 439.92,197.48 C555.13,228.23 622.91,180.99 696.92,274.48 C730.89,317.39 740.8123,376.4615 744.0123,414.1415 " fill="none" id="bus-to-tarifa" style="stroke:#181818;stroke-width:1.0;"/><polygon fill="#181818" points="744.52,420.12,747.7441,410.8138,744.0969,415.1379,739.7728,411.4908,744.52,420.12" style="stroke:#181818;stroke-width:1.0;"/><text fill="#000000" font-family="sans-serif" font-size="13" lengthAdjust="spacing" textLength="32.9443" x="728.92" y="309.4969">tiene</text></g><!--link ruta to parada--><g id="link_ruta_parada"><path codeLine="52" d="M292.22,335.77 C347.05,360.45 419.079,392.8667 473.959,417.5767 " fill="none" id="ruta-to-parada" style="stroke:#181818;stroke-width:1.0;"/><polygon fill="#181818" points="479.43,420.04,472.8657,412.6976,474.8708,417.9872,469.5813,419.9923,479.43,420.04" style="stroke:#181818;stroke-width:1.0;"/><text fill="#000000" font-family="sans-serif" font-size="13" lengthAdjust="spacing" textLength="32.9443" x="395.92" y="378.4369">tiene</text></g><!--link ruta to horario--><g id="link_ruta_horario"><path codeLine="53" d="M228.48,335.61 C233.27,391.2 243.0241,504.4422 247.8341,560.1722 " fill="none" id="ruta-to-horario" style="stroke:#181818;stroke-width:1.0;"/><polygon fill="#181818" points="248.35,566.15,251.5613,556.8394,247.9201,561.1685,243.5909,557.5273,248.35,566.15" style="stroke:#181818;stroke-width:1.0;"/><text fill="#000000" font-family="sans-serif" font-size="13" lengthAdjust="spacing" textLength="32.9443" x="242.92" y="455.5369">tiene</text></g><!--link incidencia to horario--><g id="link_incidencia_horario"><path codeLine="54" d="M133.02,489.8 C148.43,504.54 166.38,521.48 182.92,536.56 C193.7,546.38 201.0965,552.9782 211.9065,562.3982 " fill="none" id="incidencia-to-horario" style="stroke:#181818;stroke-width:1.0;"/><polygon fill="#181818" points="216.43,566.34,212.2727,557.4116,212.6604,563.0551,207.0169,563.4429,216.43,566.34" style="stroke:#181818;stroke-width:1.0;"/><text fill="#000000" font-family="sans-serif" font-size="13" lengthAdjust="spacing" textLength="40.752" x="183.92" y="532.6269">afecta</text></g><!--link persona to conductor--><g id="link_persona_conductor"><path codeLine="55" d="M515.22,177.33 C505.19,194.86 488.67,222.38 471.92,244.48 C464.26,254.59 459.272,260.6049 450.802,269.8549 " fill="none" id="persona-to-conductor" style="stroke:#181818;stroke-width:1.0;"/><polygon fill="#181818" points="446.75,274.28,455.778,270.3436,450.1266,270.5924,449.8779,264.941,446.75,274.28" style="stroke:#181818;stroke-width:1.0;"/><text fill="#000000" font-family="sans-serif" font-size="13" lengthAdjust="spacing" textLength="37.7495" x="483.92" y="240.5469">es_un</text></g><!--link persona to pasajero--><g id="link_persona_pasajero"><path codeLine="56" d="M534.93,177.26 C548.77,201.28 570.955,239.771 587.805,269.021 " fill="none" id="persona-to-pasajero" style="stroke:#181818;stroke-width:1.0;"/><polygon fill="#181818" points="590.8,274.22,589.7735,264.4248,588.3042,269.8875,582.8415,268.4181,590.8,274.22" style="stroke:#181818;stroke-width:1.0;"/><text fill="#000000" font-family="sans-serif" font-size="13" lengthAdjust="spacing" textLength="32.9443" x="571.92" y="240.5469">tiene</text></g><!--link pasajero to tarifa--><g id="link_pasajero_tarifa"><path codeLine="57" d="M636.51,335.77 C660.2,360.49 689.5395,391.1172 713.2095,415.8272 " fill="none" id="pasajero-to-tarifa" style="stroke:#181818;stroke-width:1.0;"/><polygon fill="#181818" points="717.36,420.16,714.0228,410.8938,713.9013,416.5493,708.2457,416.4277,717.36,420.16" style="stroke:#181818;stroke-width:1.0;"/><text fill="#000000" font-family="sans-serif" font-size="13" lengthAdjust="spacing" textLength="32.4365" x="681.92" y="378.4369">paga</text></g><!--link conductor to horario--><g id="link_conductor_horario"><path codeLine="58" d="M400.83,335.61 C368.83,391.2 303.1833,505.22 271.1033,560.95 " fill="none" id="conductor-to-horario" style="stroke:#181818;stroke-width:1.0;"/><polygon fill="#181818" points="268.11,566.15,276.0666,560.3455,270.6044,561.8167,269.1333,556.3544,268.11,566.15" style="stroke:#181818;stroke-width:1.0;"/><text fill="#000000" font-family="sans-serif" font-size="13" lengthAdjust="spacing" textLength="32.9443" x="356.92" y="455.5369">tiene</text></g><!--link pasajero to parada--><g id="link_pasajero_parada"><path codeLine="59" d="M575.65,335.81 C567.98,344.59 560.65,354.72 555.92,365.37 C548.29,382.54 545.9847,397.4938 545.3847,414.2538 " fill="none" id="pasajero-to-parada" style="stroke:#181818;stroke-width:1.0;"/><polygon fill="#181818" points="545.17,420.25,549.4894,411.3989,545.3489,415.2532,541.4946,411.1127,545.17,420.25" style="stroke:#181818;stroke-width:1.0;"/><text fill="#000000" font-family="sans-serif" font-size="13" lengthAdjust="spacing" textLength="91.4951" x="556.92" y="378.4369">suben y bajan</text></g><!--link ruta to incidencia--><g id="link_ruta_incidencia"><path codeLine="60" d="M198.57,335.77 C178.33,357.86 154.6638,383.6866 132.8338,407.5066 " fill="none" id="ruta-to-incidencia" style="stroke:#181818;stroke-width:1.0;"/><polygon fill="#181818" points="128.78,411.93,137.8097,407.9975,132.1582,408.2438,131.9118,402.5924,128.78,411.93" style="stroke:#181818;stroke-width:1.0;"/><text fill="#000000" font-family="sans-serif" font-size="13" lengthAdjust="spacing" textLength="32.9316" x="168.92" y="378.4369">sufre</text></g><!--SRC=[RPBDRjim3CVlVWeXznPDqsrPW0r8snNhW1N5afmBMb9Q1ROOo5Q0TTXbpxFBdc5lqYSPHLcsdCu7cn_MZ-HVn7AdPIicDnMsi13hpMeYe17Ru1O5TjbBtop4-OMSShBqZVXH27fkhyK7CMFpAofT8Rblr4nA3brXXOuYosTV5Jy7sgsLHcbwKK7JsumUtAx2skm355g7UrrLK1jjM-JKjNSW3ThGWdX21ms7L_gWdL6WAFxeuA3pqjzyc3BMScJdSvGpEJq6ppjmXhW71ueWU_uoAPeTwyxNseMUfsViRqeZ4svpzscvpc6VYUuCBaGDV_-0ZRYd64ozMKEdGozGS-36MAZ8Fz_NEUeAhVAoHRSGCfcCwxrysFbSFh-D_M9TEasXBt0meq6rQz26IQCHHursBaS3Eneu21AjJfBe955IaMMrTLh52rn1fLYeqtVlNtxzpcklIO0jbMxvoyHeThnxfwCeqzFvMJZBAwXRLFYmXyUGONfWyYwBavEFlBZ4f1NIHR13BDkuunGlo75mK3FfR49DTFqVNQFf85D2lDkIL_5qtIcHTJHEmvQqWQAxWbVTwER1sr6sluI4xWEZFaamA0RI_teQ7Um7cJI-r5Py5oNim4w6aKQYDfwk_1y0]--></g></svg>