<svg xmlns="http://www.w3.org/2000/svg" xmlns:xlink="http://www.w3.org/1999/xlink" contentStyleType="text/css" height="724px" preserveAspectRatio="none" style="width:730px;height:724px;background:#FFFFFF;" version="1.1" viewBox="0 0 730 724" width="730px" zoomAndPan="magnify"><defs/><g><!--class Flota--><g id="elem_Flota"><rect codeLine="1" fill="#F1F1F1" height="48" id="Flota" rx="2.5" ry="2.5" style="stroke:#181818;stroke-width:0.5;" width="66.5762" x="217.28" y="7"/><ellipse cx="232.28" cy="23" fill="#ADD1B2" rx="11" ry="11" style="stroke:#181818;stroke-width:1.0;"/><path d="M235.2488,28.6406 Q234.6706,28.9375 234.03,29.0781 Q233.3894,29.2344 232.6863,29.2344 Q230.1863,29.2344 228.8581,27.5938 Q227.5456,25.9375 227.5456,22.8125 Q227.5456,19.6875 228.8581,18.0313 Q230.1863,16.375 232.6863,16.375 Q233.3894,16.375 234.03,16.5313 Q234.6863,16.6875 235.2488,16.9844 L235.2488,19.7031 Q234.6238,19.125 234.03,18.8594 Q233.4363,18.5781 232.8113,18.5781 Q231.4675,18.5781 230.78,19.6563 Q230.0925,20.7188 230.0925,22.8125 Q230.0925,24.9063 230.78,25.9844 Q231.4675,27.0469 232.8113,27.0469 Q233.4363,27.0469 234.03,26.7813 Q234.6238,26.5 235.2488,25.9219 L235.2488,28.6406 Z " fill="#000000"/><text fill="#000000" font-family="sans-serif" font-size="14" lengthAdjust="spacing" textLength="34.5762" x="246.28" y="27.8467">Flota</text><line style="stroke:#181818;stroke-width:0.5;" x1="218.28" x2="282.8562" y1="39" y2="39"/><line style="stroke:#181818;stroke-width:0.5;" x1="218.28" x2="282.8562" y1="47" y2="47"/></g><!--class Bus--><g id="elem_Bus"><rect codeLine="2" fill="#F1F1F1" height="96.8906" id="Bus" rx="2.5" ry="2.5" style="stroke:#181818;stroke-width:0.5;" width="62.5996" x="219.26" y="132"/><ellipse cx="236.4327" cy="148" fill="#ADD1B2" rx="11" ry="11" style="stroke:#181818;stroke-width:1.0;"/><path d="M239.4014,153.6406 Q238.8233,153.9375 238.1827,154.0781 Q237.542,154.2344 236.8389,154.2344 Q234.3389,154.2344 233.0108,152.5938 Q231.6983,150.9375 231.6983,147.8125 Q231.6983,144.6875 233.0108,143.0313 Q234.3389,141.375 236.8389,141.375 Q237.542,141.375 238.1827,141.5313 Q238.8389,141.6875 239.4014,141.9844 L239.4014,144.7031 Q238.7764,144.125 238.1827,143.8594 Q237.5889,143.5781 236.9639,143.5781 Q235.6202,143.5781 234.9327,144.6563 Q234.2452,145.7188 234.2452,147.8125 Q234.2452,149.9063 234.9327,150.9844 Q235.6202,152.0469 236.9639,152.0469 Q237.5889,152.0469 238.1827,151.7813 Q238.7764,151.5 239.4014,150.9219 L239.4014,153.6406 Z " fill="#000000"/><text fill="#000000" font-family="sans-serif" font-size="14" lengthAdjust="spacing" textLength="25.7715" x="250.9155" y="152.8467">Bus</text><line style="stroke:#181818;stroke-width:0.5;" x1="220.26" x2="280.8596" y1="164" y2="164"/><text fill="#000000" font-family="sans-serif" font-size="14" lengthAdjust="spacing" textLength="14.9092" x="225.26" y="180.9951">ID</text><text fill="#000000" font-family="sans-serif" font-size="14" lengthAdjust="spacing" textLength="50.5996" x="225.26" y="197.292">Modelo</text><text fill="#000000" font-family="sans-serif" font-size="14" lengthAdjust="spacing" textLength="36.5518" x="225.26" y="213.5889">Color</text><line style="stroke:#181818;stroke-width:0.5;" x1="220.26" x2="280.8596" y1="220.8906" y2="220.8906"/></g><!--class Incidencia--><g id="elem_Incidencia"><rect codeLine="7" fill="#F1F1F1" height="96.8906" id="Incidencia" rx="2.5" ry="2.5" style="stroke:#181818;stroke-width:0.5;" width="103.1279" x="7" y="463.49"/><ellipse cx="22" cy="479.49" fill="#ADD1B2" rx="11" ry="11" style="stroke:#181818;stroke-width:1.0;"/><path d="M24.9688,485.1306 Q24.3906,485.4275 23.75,485.5681 Q23.1094,485.7244 22.4063,485.7244 Q19.9063,485.7244 18.5781,484.0838 Q17.2656,482.4275 17.2656,479.3025 Q17.2656,476.1775 18.5781,474.5213 Q19.9063,472.865 22.4063,472.865 Q23.1094,472.865 23.75,473.0213 Q24.4063,473.1775 24.9688,473.4744 L24.9688,476.1931 Q24.3438,475.615 23.75,475.3494 Q23.1563,475.0681 22.5313,475.0681 Q21.1875,475.0681 20.5,476.1463 Q19.8125,477.2088 19.8125,479.3025 Q19.8125,481.3963 20.5,482.4744 Q21.1875,483.5369 22.5313,483.5369 Q23.1563,483.5369 23.75,483.2713 Q24.3438,482.99 24.9688,482.4119 L24.9688,485.1306 Z " fill="#000000"/><text fill="#000000" font-family="sans-serif" font-size="14" lengthAdjust="spacing" textLength="71.1279" x="36" y="484.3367">Incidencia</text><line style="stroke:#181818;stroke-width:0.5;" x1="8" x2="109.1279" y1="495.49" y2="495.49"/><text fill="#000000" font-family="sans-serif" font-size="14" lengthAdjust="spacing" textLength="29.8936" x="13" y="512.4851">Tipo</text><text fill="#000000" font-family="sans-serif" font-size="14" lengthAdjust="spacing" textLength="63.0137" x="13" y="528.782">Duracion</text><text fill="#000000" font-family="sans-serif" font-size="14" lengthAdjust="spacing" textLength="70.3965" x="13" y="545.0789">Severidad</text><line style="stroke:#181818;stroke-width:0.5;" x1="8" x2="109.1279" y1="552.3806" y2="552.3806"/></g><!--class Ruta--><g id="elem_Ruta"><rect codeLine="12" fill="#F1F1F1" height="80.5938" id="Ruta" rx="2.5" ry="2.5" style="stroke:#181818;stroke-width:0.5;" width="75.0137" x="105.06" y="305.89"/><ellipse cx="124.7151" cy="321.89" fill="#ADD1B2" rx="11" ry="11" style="stroke:#181818;stroke-width:1.0;"/><path d="M127.6839,327.5306 Q127.1058,327.8275 126.4651,327.9681 Q125.8245,328.1244 125.1214,328.1244 Q122.6214,328.1244 121.2933,326.4838 Q119.9808,324.8275 119.9808,321.7025 Q119.9808,318.5775 121.2933,316.9213 Q122.6214,315.265 125.1214,315.265 Q125.8245,315.265 126.4651,315.4213 Q127.1214,315.5775 127.6839,315.8744 L127.6839,318.5931 Q127.0589,318.015 126.4651,317.7494 Q125.8714,317.4681 125.2464,317.4681 Q123.9026,317.4681 123.2151,318.5463 Q122.5276,319.6088 122.5276,321.7025 Q122.5276,323.7963 123.2151,324.8744 Q123.9026,325.9369 125.2464,325.9369 Q125.8714,325.9369 126.4651,325.6713 Q127.0589,325.39 127.6839,324.8119 L127.6839,327.5306 Z " fill="#000000"/><text fill="#000000" font-family="sans-serif" font-size="14" lengthAdjust="spacing" textLength="32.6689" x="139.7496" y="326.7367">Ruta</text><line style="stroke:#181818;stroke-width:0.5;" x1="106.06" x2="179.0737" y1="337.89" y2="337.89"/><text fill="#000000" font-family="sans-serif" font-size="14" lengthAdjust="spacing" textLength="14.9092" x="111.06" y="354.8851">ID</text><text fill="#000000" font-family="sans-serif" font-size="14" lengthAdjust="spacing" textLength="63.0137" x="111.06" y="371.182">Duracion</text><line style="stroke:#181818;stroke-width:0.5;" x1="106.06" x2="179.0737" y1="378.4838" y2="378.4838"/></g><!--class Parada--><g id="elem_Parada"><rect codeLine="16" fill="#F1F1F1" height="80.5938" id="Parada" rx="2.5" ry="2.5" style="stroke:#181818;stroke-width:0.5;" width="80.8223" x="414.15" y="471.63"/><ellipse cx="429.15" cy="487.63" fill="#ADD1B2" rx="11" ry="11" style="stroke:#181818;stroke-width:1.0;"/><path d="M432.1188,493.2706 Q431.5406,493.5675 430.9,493.7081 Q430.2594,493.8644 429.5563,493.8644 Q427.0563,493.8644 425.7281,492.2238 Q424.4156,490.5675 424.4156,487.4425 Q424.4156,484.3175 425.7281,482.6613 Q427.0563,481.005 429.5563,481.005 Q430.2594,481.005 430.9,481.1613 Q431.5563,481.3175 432.1188,481.6144 L432.1188,484.3331 Q431.4938,483.755 430.9,483.4894 Q430.3063,483.2081 429.6813,483.2081 Q428.3375,483.2081 427.65,484.2863 Q426.9625,485.3488 426.9625,487.4425 Q426.9625,489.5363 427.65,490.6144 Q428.3375,491.6769 429.6813,491.6769 Q430.3063,491.6769 430.9,491.4113 Q431.4938,491.13 432.1188,490.5519 L432.1188,493.2706 Z " fill="#000000"/><text fill="#000000" font-family="sans-serif" font-size="14" lengthAdjust="spacing" textLength="48.8223" x="443.15" y="492.4767">Parada</text><line style="stroke:#181818;stroke-width:0.5;" x1="415.15" x2="493.9723" y1="503.63" y2="503.63"/><text fill="#000000" font-family="sans-serif" font-size="14" lengthAdjust="spacing" textLength="55.918" x="420.15" y="520.6251">Numero</text><text fill="#000000" font-family="sans-serif" font-size="14" lengthAdjust="spacing" textLength="68.3252" x="420.15" y="536.922">Ubicacion</text><line style="stroke:#181818;stroke-width:0.5;" x1="415.15" x2="493.9723" y1="544.2238" y2="544.2238"/></g><!--class Horario--><g id="elem_Horario"><rect codeLine="20" fill="#F1F1F1" height="80.5938" id="Horario" rx="2.5" ry="2.5" style="stroke:#181818;stroke-width:0.5;" width="83.6387" x="138.74" y="637.38"/><ellipse cx="153.74" cy="653.38" fill="#ADD1B2" rx="11" ry="11" style="stroke:#181818;stroke-width:1.0;"/><path d="M156.7088,659.0206 Q156.1306,659.3175 155.49,659.4581 Q154.8494,659.6144 154.1463,659.6144 Q151.6463,659.6144 150.3181,657.9738 Q149.0056,656.3175 149.0056,653.1925 Q149.0056,650.0675 150.3181,648.4113 Q151.6463,646.755 154.1463,646.755 Q154.8494,646.755 155.49,646.9113 Q156.1463,647.0675 156.7088,647.3644 L156.7088,650.0831 Q156.0838,649.505 155.49,649.2394 Q154.8963,648.9581 154.2713,648.9581 Q152.9275,648.9581 152.24,650.0363 Q151.5525,651.0988 151.5525,653.1925 Q151.5525,655.2863 152.24,656.3644 Q152.9275,657.4269 154.2713,657.4269 Q154.8963,657.4269 155.49,657.1613 Q156.0838,656.88 156.7088,656.3019 L156.7088,659.0206 Z " fill="#000000"/><text fill="#000000" font-family="sans-serif" font-size="14" lengthAdjust="spacing" textLength="51.6387" x="167.74" y="658.2267">Horario</text><line style="stroke:#181818;stroke-width:0.5;" x1="139.74" x2="221.3787" y1="669.38" y2="669.38"/><text fill="#000000" font-family="sans-serif" font-size="14" lengthAdjust="spacing" textLength="37.0439" x="144.74" y="686.3751">Inicio</text><text fill="#000000" font-family="sans-serif" font-size="14" lengthAdjust="spacing" textLength="33.2842" x="144.74" y="702.672">Final</text><line style="stroke:#181818;stroke-width:0.5;" x1="139.74" x2="221.3787" y1="709.9738" y2="709.9738"/></g><!--class Conductor--><g id="elem_Conductor"><rect codeLine="24" fill="#F1F1F1" height="80.5938" id="Conductor" rx="2.5" ry="2.5" style="stroke:#181818;stroke-width:0.5;" width="104.4814" x="619.32" y="305.89"/><ellipse cx="634.32" cy="321.89" fill="#ADD1B2" rx="11" ry="11" style="stroke:#181818;stroke-width:1.0;"/><path d="M637.2888,327.5306 Q636.7106,327.8275 636.07,327.9681 Q635.4294,328.1244 634.7263,328.1244 Q632.2263,328.1244 630.8981,326.4838 Q629.5856,324.8275 629.5856,321.7025 Q629.5856,318.5775 630.8981,316.9213 Q632.2263,315.265 634.7263,315.265 Q635.4294,315.265 636.07,315.4213 Q636.7263,315.5775 637.2888,315.8744 L637.2888,318.5931 Q636.6638,318.015 636.07,317.7494 Q635.4763,317.4681 634.8513,317.4681 Q633.5075,317.4681 632.82,318.5463 Q632.1325,319.6088 632.1325,321.7025 Q632.1325,323.7963 632.82,324.8744 Q633.5075,325.9369 634.8513,325.9369 Q635.4763,325.9369 636.07,325.6713 Q636.6638,325.39 637.2888,324.8119 L637.2888,327.5306 Z " fill="#000000"/><text fill="#000000" font-family="sans-serif" font-size="14" lengthAdjust="spacing" textLength="72.4814" x="648.32" y="326.7367">Conductor</text><line style="stroke:#181818;stroke-width:0.5;" x1="620.32" x2="722.8014" y1="337.89" y2="337.89"/><text fill="#000000" font-family="sans-serif" font-size="14" lengthAdjust="spacing" textLength="14.9092" x="625.32" y="354.8851">ID</text><text fill="#000000" font-family="sans-serif" font-size="14" lengthAdjust="spacing" textLength="55.9316" x="625.32" y="371.182">Nombre</text><line style="stroke:#181818;stroke-width:0.5;" x1="620.32" x2="722.8014" y1="378.4838" y2="378.4838"/></g><!--class Persona--><g id="elem_Persona"><rect codeLine="28" fill="#F1F1F1" height="48" id="Persona" rx="2.5" ry="2.5" style="stroke:#181818;stroke-width:0.5;" width="88.123" x="601.5" y="156.45"/><ellipse cx="616.5" cy="172.45" fill="#ADD1B2" rx="11" ry="11" style="stroke:#181818;stroke-width:1.0;"/><path d="M619.4688,178.0906 Q618.8906,178.3875 618.25,178.5281 Q617.6094,178.6844 616.9063,178.6844 Q614.4063,178.6844 613.0781,177.0438 Q611.7656,175.3875 611.7656,172.2625 Q611.7656,169.1375 613.0781,167.4813 Q614.4063,165.825 616.9063,165.825 Q617.6094,165.825 618.25,165.9813 Q618.9063,166.1375 619.4688,166.4344 L619.4688,169.1531 Q618.8438,168.575 618.25,168.3094 Q617.6563,168.0281 617.0313,168.0281 Q615.6875,168.0281 615,169.1063 Q614.3125,170.1688 614.3125,172.2625 Q614.3125,174.3563 615,175.4344 Q615.6875,176.4969 617.0313,176.4969 Q617.6563,176.4969 618.25,176.2313 Q618.8438,175.95 619.4688,175.3719 L619.4688,178.0906 Z " fill="#000000"/><text fill="#000000" font-family="sans-serif" font-size="14" lengthAdjust="spacing" textLength="56.123" x="630.5" y="177.2967">Persona</text><line style="stroke:#181818;stroke-width:0.5;" x1="602.5" x2="688.623" y1="188.45" y2="188.45"/><line style="stroke:#181818;stroke-width:0.5;" x1="602.5" x2="688.623" y1="196.45" y2="196.45"/></g><!--class Pasajero--><g id="elem_Pasajero"><rect codeLine="29" fill="#F1F1F1" height="80.5938" id="Pasajero" rx="2.5" ry="2.5" style="stroke:#181818;stroke-width:0.5;" width="91.7188" x="492.7" y="305.89"/><ellipse cx="507.7" cy="321.89" fill="#ADD1B2" rx="11" ry="11" style="stroke:#181818;stroke-width:1.0;"/><path d="M510.6688,327.5306 Q510.0906,327.8275 509.45,327.9681 Q508.8094,328.1244 508.1063,328.1244 Q505.6063,328.1244 504.2781,326.4838 Q502.9656,324.8275 502.9656,321.7025 Q502.9656,318.5775 504.2781,316.9213 Q505.6063,315.265 508.1063,315.265 Q508.8094,315.265 509.45,315.4213 Q510.1063,315.5775 510.6688,315.8744 L510.6688,318.5931 Q510.0438,318.015 509.45,317.7494 Q508.8563,317.4681 508.2313,317.4681 Q506.8875,317.4681 506.2,318.5463 Q505.5125,319.6088 505.5125,321.7025 Q505.5125,323.7963 506.2,324.8744 Q506.8875,325.9369 508.2313,325.9369 Q508.8563,325.9369 509.45,325.6713 Q510.0438,325.39 510.6688,324.8119 L510.6688,327.5306 Z " fill="#000000"/><text fill="#000000" font-family="sans-serif" font-size="14" lengthAdjust="spacing" textLength="59.7188" x="521.7" y="326.7367">Pasajero</text><line style="stroke:#181818;stroke-width:0.5;" x1="493.7" x2="583.4188" y1="337.89" y2="337.89"/><text fill="#000000" font-family="sans-serif" font-size="14" lengthAdjust="spacing" textLength="55.9316" x="498.7" y="354.8851">Nombre</text><text fill="#000000" font-family="sans-serif" font-size="14" lengthAdjust="spacing" textLength="38.8076" x="498.7" y="371.182">Saldo</text><line style="stroke:#181818;stroke-width:0.5;" x1="493.7" x2="583.4188" y1="378.4838" y2="378.4838"/></g><!--class Tarifa--><g id="elem_Tarifa"><rect codeLine="33" fill="#F1F1F1" height="80.5938" id="Tarifa" rx="2.5" ry="2.5" style="stroke:#181818;stroke-width:0.5;" width="106.1172" x="265.51" y="471.63"/><ellipse cx="295.7349" cy="487.63" fill="#ADD1B2" rx="11" ry="11" style="stroke:#181818;stroke-width:1.0;"/><path d="M298.7036,493.2706 Q298.1255,493.5675 297.4849,493.7081 Q296.8442,493.8644 296.1411,493.8644 Q293.6411,493.8644 292.313,492.2238 Q291.0005,490.5675 291.0005,487.4425 Q291.0005,484.3175 292.313,482.6613 Q293.6411,481.005 296.1411,481.005 Q296.8442,481.005 297.4849,481.1613 Q298.1411,481.3175 298.7036,481.6144 L298.7036,484.3331 Q298.0786,483.755 297.4849,483.4894 Q296.8911,483.2081 296.2661,483.2081 Q294.9224,483.2081 294.2349,484.2863 Q293.5474,485.3488 293.5474,487.4425 Q293.5474,489.5363 294.2349,490.6144 Q294.9224,491.6769 296.2661,491.6769 Q296.8911,491.6769 297.4849,491.4113 Q298.0786,491.13 298.7036,490.5519 L298.7036,493.2706 Z " fill="#000000"/><text fill="#000000" font-family="sans-serif" font-size="14" lengthAdjust="spacing" textLength="40.2842" x="313.1182" y="492.4767">Tarifa</text><line style="stroke:#181818;stroke-width:0.5;" x1="266.51" x2="370.6272" y1="503.63" y2="503.63"/><text fill="#000000" font-family="sans-serif" font-size="14" lengthAdjust="spacing" textLength="42.9639" x="271.51" y="520.6251">Precio</text><text fill="#000000" font-family="sans-serif" font-size="14" lengthAdjust="spacing" textLength="94.1172" x="271.51" y="536.922">Metodo_pago</text><line style="stroke:#181818;stroke-width:0.5;" x1="266.51" x2="370.6272" y1="544.2238" y2="544.2238"/></g><!--class Mantenimiento--><g id="elem_Mantenimiento"><rect codeLine="37" fill="#F1F1F1" height="80.5938" id="Mantenimiento" rx="2.5" ry="2.5" style="stroke:#181818;stroke-width:0.5;" width="137.4648" x="319.83" y="305.89"/><ellipse cx="334.83" cy="321.89" fill="#ADD1B2" rx="11" ry="11" style="stroke:#181818;stroke-width:1.0;"/><path d="M337.7988,327.5306 Q337.2206,327.8275 336.58,327.9681 Q335.9394,328.1244 335.2363,328.1244 Q332.7363,328.1244 331.4081,326.4838 Q330.0956,324.8275 330.0956,321.7025 Q330.0956,318.5775 331.4081,316.9213 Q332.7363,315.265 335.2363,315.265 Q335.9394,315.265 336.58,315.4213 Q337.2363,315.5775 337.7988,315.8744 L337.7988,318.5931 Q337.1738,318.015 336.58,317.7494 Q335.9863,317.4681 335.3613,317.4681 Q334.0175,317.4681 333.33,318.5463 Q332.6425,319.6088 332.6425,321.7025 Q332.6425,323.7963 333.33,324.8744 Q334.0175,325.9369 335.3613,325.9369 Q335.9863,325.9369 336.58,325.6713 Q337.1738,325.39 337.7988,324.8119 L337.7988,327.5306 Z " fill="#000000"/><text fill="#000000" font-family="sans-serif" font-size="14" lengthAdjust="spacing" textLength="105.4648" x="348.83" y="326.7367">Mantenimiento</text><line style="stroke:#181818;stroke-width:0.5;" x1="320.83" x2="456.2948" y1="337.89" y2="337.89"/><text fill="#000000" font-family="sans-serif" font-size="14" lengthAdjust="spacing" textLength="14.9092" x="325.83" y="354.8851">ID</text><text fill="#000000" font-family="sans-serif" font-size="14" lengthAdjust="spacing" textLength="29.8936" x="325.83" y="371.182">Tipo</text><line style="stroke:#181818;stroke-width:0.5;" x1="320.83" x2="456.2948" y1="378.4838" y2="378.4838"/></g><!--link Flota to Bus--><g id="link_Flota_Bus"><path codeLine="42" d="M250.56,55.36 C250.56,75.83 250.56,100.21 250.56,125.78 " fill="none" id="Flota-to-Bus" style="stroke:#181818;stroke-width:1.0;"/><polygon fill="#181818" points="250.56,131.78,254.56,122.78,250.56,126.78,246.56,122.78,250.56,131.78" style="stroke:#181818;stroke-width:1.0;"/><text fill="#000000" font-family="sans-serif" font-size="13" lengthAdjust="spacing" textLength="32.9443" x="251.56" y="98.0669">tiene</text></g><!--link Bus to Incidencia--><g id="link_Bus_Incidencia"><path codeLine="43" d="M218.85,190.72 C172.75,206.11 88.91,241.76 53.56,305.89 C26.84,354.39 33.0839,413.773 43.1539,457.513 " fill="none" id="Bus-to-Incidencia" style="stroke:#181818;stroke-width:1.0;"/><polygon fill="#181818" points="44.5,463.36,46.3788,453.692,43.3782,458.4875,38.5828,455.4869,44.5,463.36" style="stroke:#181818;stroke-width:1.0;"/><text fill="#000000" font-family="sans-serif" font-size="13" lengthAdjust="spacing" textLength="32.9443" x="54.56" y="350.7569">tiene</text></g><!--link Bus to Ruta--><g id="link_Bus_Ruta"><path codeLine="44" d="M218.85,220 C209.36,232.16 199.18,245.83 190.56,258.89 C180.74,273.77 173.842,285.5266 165.712,300.5066 " fill="none" id="Bus-to-Ruta" style="stroke:#181818;stroke-width:1.0;"/><polygon fill="#181818" points="162.85,305.78,170.6586,299.7779,165.235,301.3855,163.6274,295.9619,162.85,305.78" style="stroke:#181818;stroke-width:1.0;"/><text fill="#000000" font-family="sans-serif" font-size="13" lengthAdjust="spacing" textLength="32.9443" x="191.56" y="271.9569">tiene</text></g><!--link Bus to Conductor--><g id="link_Bus_Conductor"><path codeLine="45" d="M282.26,190.69 C344.67,209.31 487.35,254.05 601.56,305.89 C607.27,308.48 607.8164,308.6125 613.6064,311.6225 " fill="none" id="Bus-to-Conductor" style="stroke:#181818;stroke-width:1.0;"/><polygon fill="#181818" points="618.93,314.39,612.7896,306.6896,614.4937,312.0837,609.0996,313.7878,618.93,314.39" style="stroke:#181818;stroke-width:1.0;"/><text fill="#000000" font-family="sans-serif" font-size="13" lengthAdjust="spacing" textLength="94.8467" x="526.56" y="271.9569">conducido_por</text></g><!--link Bus to Tarifa--><g id="link_Bus_Tarifa"><path codeLine="46" d="M248.49,229.14 C247.67,280.77 250.49,364.92 272.56,433.49 C276.73,446.44 280.3008,454.3804 287.2608,466.0204 " fill="none" id="Bus-to-Tarifa" style="stroke:#181818;stroke-width:1.0;"/><polygon fill="#181818" points="290.34,471.17,289.1543,461.3928,287.774,466.8786,282.2882,465.4983,290.34,471.17" style="stroke:#181818;stroke-width:1.0;"/><text fill="#000000" font-family="sans-serif" font-size="13" lengthAdjust="spacing" textLength="32.9443" x="261.56" y="350.7569">tiene</text></g><!--link Bus to Mantenimiento--><g id="link_Bus_Mantenimiento"><path codeLine="47" d="M282.22,219.01 C304.03,244.88 329.0827,274.6126 351.2627,300.9226 " fill="none" id="Bus-to-Mantenimiento" style="stroke:#181818;stroke-width:1.0;"/><polygon fill="#181818" points="355.13,305.51,352.3873,296.0507,351.9073,301.6872,346.2708,301.2071,355.13,305.51" style="stroke:#181818;stroke-width:1.0;"/><text fill="#000000" font-family="sans-serif" font-size="13" lengthAdjust="spacing" textLength="54.7866" x="328.56" y="271.9569">requiere</text></g><!--link Ruta to Parada--><g id="link_Ruta_Parada"><path codeLine="48" d="M180.54,371.39 C189.28,376.61 198.64,381.93 207.56,386.49 C285.79,426.42 313.14,420.2 389.56,463.49 C397.71,468.1 401.1308,470.1004 409.0008,475.6304 " fill="none" id="Ruta-to-Parada" style="stroke:#181818;stroke-width:1.0;"/><polygon fill="#181818" points="413.91,479.08,408.8459,470.6328,409.819,476.2054,404.2464,477.1785,413.91,479.08" style="stroke:#181818;stroke-width:1.0;"/><text fill="#000000" font-family="sans-serif" font-size="13" lengthAdjust="spacing" textLength="32.9443" x="325.56" y="429.5569">tiene</text></g><!--link Ruta to Horario--><g id="link_Ruta_Horario"><path codeLine="49" d="M147.15,386.93 C154.46,450.35 168.0031,567.7394 175.3031,631.0894 " fill="none" id="Ruta-to-Horario" style="stroke:#181818;stroke-width:1.0;"/><polygon fill="#181818" points="175.99,637.05,178.9334,627.6513,175.4176,632.0829,170.986,628.5671,175.99,637.05" style="stroke:#181818;stroke-width:1.0;"/><text fill="#000000" font-family="sans-serif" font-size="13" lengthAdjust="spacing" textLength="32.9443" x="168.56" y="516.4969">tiene</text></g><!--link Incidencia to Horario--><g id="link_Incidencia_Horario"><path codeLine="50" d="M82.66,560.55 C91.3,576.02 101.62,592.92 112.56,607.38 C120.29,617.59 125.2689,623.5274 134.2889,632.8974 " fill="none" id="Incidencia-to-Horario" style="stroke:#181818;stroke-width:1.0;"/><polygon fill="#181818" points="138.45,637.22,135.09,627.962,134.9824,633.6178,129.3266,633.5102,138.45,637.22" style="stroke:#181818;stroke-width:1.0;"/><text fill="#000000" font-family="sans-serif" font-size="13" lengthAdjust="spacing" textLength="40.752" x="113.56" y="603.4469">afecta</text></g><!--link Persona to Conductor--><g id="link_Persona_Conductor"><path codeLine="51" d="M649.29,204.91 C653.46,231.17 659.3488,268.2443 664.3488,299.7243 " fill="none" id="Persona-to-Conductor" style="stroke:#181818;stroke-width:1.0;"/><polygon fill="#181818" points="665.29,305.65,667.8287,296.134,664.5057,300.7119,659.9277,297.3889,665.29,305.65" style="stroke:#181818;stroke-width:1.0;"/></g><!--link Persona to Pasajero--><g id="link_Persona_Pasajero"><path codeLine="52" d="M637.06,204.6 C629.28,224.38 616.69,253.15 601.56,275.89 C594.81,286.05 590.5911,291.711 582.3611,300.991 " fill="none" id="Persona-to-Pasajero" style="stroke:#181818;stroke-width:1.0;"/><polygon fill="#181818" points="578.38,305.48,587.3443,301.4006,581.6976,301.7392,581.359,296.0925,578.38,305.48" style="stroke:#181818;stroke-width:1.0;"/></g><!--link Pasajero to Tarifa--><g id="link_Pasajero_Tarifa"><path codeLine="53" d="M492.44,381.51 C457.29,407.68 413.6331,440.1776 376.7931,467.5976 " fill="none" id="Pasajero-to-Tarifa" style="stroke:#181818;stroke-width:1.0;"/><polygon fill="#181818" points="371.98,471.18,381.588,469.0151,375.9909,468.1947,376.8114,462.5976,371.98,471.18" style="stroke:#181818;stroke-width:1.0;"/><text fill="#000000" font-family="sans-serif" font-size="13" lengthAdjust="spacing" textLength="32.4365" x="442.56" y="429.5569">paga</text></g><!--link Conductor to Horario--><g id="link_Conductor_Horario"><path codeLine="54" d="M651.66,386.63 C625.77,434.22 576.2,513.64 512.56,560.38 C421.87,626.98 295.654,656.891 228.714,669.011 " fill="none" id="Conductor-to-Horario" style="stroke:#181818;stroke-width:1.0;"/><polygon fill="#181818" points="222.81,670.08,232.3787,672.4126,227.73,669.1892,230.9534,664.5405,222.81,670.08" style="stroke:#181818;stroke-width:1.0;"/><text fill="#000000" font-family="sans-serif" font-size="13" lengthAdjust="spacing" textLength="32.9443" x="603.56" y="516.4969">tiene</text></g><!--link Pasajero to Parada--><g id="link_Pasajero_Parada"><path codeLine="55" d="M518.23,386.83 C505.07,412.48 490.7481,440.4012 477.5981,466.0412 " fill="none" id="Pasajero-to-Parada" style="stroke:#181818;stroke-width:1.0;"/><polygon fill="#181818" points="474.86,471.38,482.5264,465.1972,477.1418,466.931,475.408,461.5464,474.86,471.38" style="stroke:#181818;stroke-width:1.0;"/><text fill="#000000" font-family="sans-serif" font-size="13" lengthAdjust="spacing" textLength="91.4951" x="502.56" y="429.5569">suben y bajan</text></g><!--link Ruta to Incidencia--><g id="link_Ruta_Incidencia"><path codeLine="56" d="M122.23,386.83 C110.43,409.83 98.2286,433.6115 85.7886,457.8615 " fill="none" id="Ruta-to-Incidencia" style="stroke:#181818;stroke-width:1.0;"/><polygon fill="#181818" points="83.05,463.2,90.7169,457.0179,85.3322,458.7512,83.5989,453.3664,83.05,463.2" style="stroke:#181818;stroke-width:1.0;"/><text fill="#000000" font-family="sans-serif" font-size="13" lengthAdjust="spacing" textLength="32.9316" x="107.56" y="429.5569">sufre</text></g><!--SRC=[TLF1RiCW3BtlAr3l_O4STbYhQZsqghhkF3dWJbGfxWnCcgRz-mX92IoC0ugnt-CzxCWEh1MRZXmyYB1aZ9-y5TynxjTsdJvtfB2Z5Awe8uxHJuRU6gaLXWqoafE-JRYrPv2QJ3fumKzahK3Do8xUGLrBGP933i2WSj3UNv6dsrzRBUl8Ps9WJVbzHeVA56wqWMu6Mv5HNZhYkj0zNLl6kKnaImOAuHOkGMakVSB6Tu9EqOpf54IVSyC7nbpr3XqfUhl1-nox0-FGwAj6uwYkFxLkmCKjJenOBX_Zh3J21VmWiu_xysmAQkdOrrfYUin6oFYjU-tZdDshHiirWj9H8nW_lCRn4UErVTKu93b1ojt784zcTieIEACSVvwnetzip5AfpKFc7XMsGgy6peddFsK5GRAriBv58xv42nSmYz9WqHlhpuo_]--></g></svg>