<svg xmlns="http://www.w3.org/2000/svg" xmlns:xlink="http://www.w3.org/1999/xlink" contentStyleType="text/css" height="1022px" preserveAspectRatio="none" style="width:288px;height:1022px;background:#FFFFFF;" version="1.1" viewBox="0 0 288 1022" width="288px" zoomAndPan="magnify"><defs/><g><ellipse cx="140.92" cy="16" fill="#222222" rx="10" ry="10" style="stroke:#222222;stroke-width:1.0;"/><g id="Bus"><rect fill="#F1F1F1" height="50" rx="12.5" ry="12.5" style="stroke:#181818;stroke-width:0.5;" width="50" x="115.92" y="86"/><line style="stroke:#181818;stroke-width:0.5;" x1="115.92" x2="165.92" y1="112.2969" y2="112.2969"/><text fill="#000000" font-family="sans-serif" font-size="14" lengthAdjust="spacing" textLength="25.7715" x="128.0343" y="103.9951">Bus</text></g><g id="Inicia_jornada"><rect fill="#F1F1F1" height="50" rx="12.5" ry="12.5" style="stroke:#181818;stroke-width:0.5;" width="117.1865" x="82.33" y="196"/><line style="stroke:#181818;stroke-width:0.5;" x1="82.33" x2="199.5165" y1="222.2969" y2="222.2969"/><text fill="#000000" font-family="sans-serif" font-size="14" lengthAdjust="spacing" textLength="97.1865" x="92.33" y="213.9951">Inicia_jornada</text></g><path d="M19.5,306 L262.3436,306 A12.5,12.5 0 0 1 274.8436,318.5 L274.8436,332.2969 L7,332.2969 L7,318.5 A12.5,12.5 0 0 1 19.5,306 " fill="#F1F1F1" style="stroke:#F1F1F1;stroke-width:1.0;"/><rect fill="none" height="518.2969" rx="12.5" ry="12.5" style="stroke:#181818;stroke-width:0.5;" width="267.8436" x="7" y="306"/><line style="stroke:#181818;stroke-width:0.5;" x1="7" x2="274.8436" y1="332.2969" y2="332.2969"/><text fill="#000000" font-family="sans-serif" font-size="14" lengthAdjust="spacing" textLength="32.6689" x="124.5873" y="323.9951">Ruta</text><ellipse cx="139.14" cy="353.2969" fill="#222222" rx="10" ry="10" style="stroke:#222222;stroke-width:1.0;"/><g id="Ruta.Inicia_ruta"><rect fill="#F1F1F1" height="50" rx="12.5" ry="12.5" style="stroke:#181818;stroke-width:0.5;" width="92.7549" x="92.76" y="400.2969"/><line style="stroke:#181818;stroke-width:0.5;" x1="92.76" x2="185.5149" y1="426.5938" y2="426.5938"/><text fill="#000000" font-family="sans-serif" font-size="14" lengthAdjust="spacing" textLength="72.7549" x="102.76" y="418.292">Inicia_ruta</text></g><g id="Ruta.Siguiente_parada"><rect fill="#F1F1F1" height="50" rx="12.5" ry="12.5" style="stroke:#181818;stroke-width:0.5;" width="142.2813" x="19" y="487.2969"/><line style="stroke:#181818;stroke-width:0.5;" x1="19" x2="161.2813" y1="513.5938" y2="513.5938"/><text fill="#000000" font-family="sans-serif" font-size="14" lengthAdjust="spacing" textLength="122.2813" x="29" y="505.292">Siguiente_parada</text></g><g id="Ruta.Finaliza_ruta"><rect fill="#F1F1F1" height="50" rx="12.5" ry="12.5" style="stroke:#181818;stroke-width:0.5;" width="108.7988" x="48.74" y="574.2969"/><line style="stroke:#181818;stroke-width:0.5;" x1="48.74" x2="157.5388" y1="600.5938" y2="600.5938"/><text fill="#000000" font-family="sans-serif" font-size="14" lengthAdjust="spacing" textLength="88.7988" x="58.74" y="592.292">Finaliza_ruta</text></g><g id="Ruta.Descanso"><rect fill="#F1F1F1" height="50" rx="12.5" ry="12.5" style="stroke:#181818;stroke-width:0.5;" width="87.6963" x="139.29" y="661.2969"/><line style="stroke:#181818;stroke-width:0.5;" x1="139.29" x2="226.9863" y1="687.5938" y2="687.5938"/><text fill="#000000" font-family="sans-serif" font-size="14" lengthAdjust="spacing" textLength="67.6963" x="149.29" y="679.292">Descanso</text></g><ellipse cx="103.14" cy="686.2969" fill="none" rx="11" ry="11" style="stroke:#222222;stroke-width:1.0;"/><ellipse cx="103.14" cy="686.2969" fill="#222222" rx="6" ry="6" style="stroke:#222222;stroke-width:1.0;"/><g id="Ruta.En_mantenimiento"><rect fill="#F1F1F1" height="50" rx="12.5" ry="12.5" style="stroke:#181818;stroke-width:0.5;" width="151.7422" x="106.27" y="764.2969"/><line style="stroke:#181818;stroke-width:0.5;" x1="106.27" x2="258.0122" y1="790.5938" y2="790.5938"/><text fill="#000000" font-family="sans-serif" font-size="14" lengthAdjust="spacing" textLength="131.7422" x="116.27" y="782.292">En_mantenimiento</text></g><!--link *start*Ruta to Inicia_ruta--><g id="link_*start*Ruta_Inicia_ruta"><path d="M139.14,363.7369 C139.14,372.9969 139.14,381.4869 139.14,393.9769 " fill="none" id="*start*Ruta-to-Inicia_ruta" style="stroke:#181818;stroke-width:1.0;"/><polygon fill="#181818" points="139.14,399.9769,143.14,390.9769,139.14,394.9769,135.14,390.9769,139.14,399.9769" style="stroke:#181818;stroke-width:1.0;"/></g><!--link Inicia_ruta to Siguiente_parada--><g id="link_Inicia_ruta_Siguiente_parada"><path d="M125.23,450.4269 C118.67,461.8169 113.8469,470.1789 107.2569,481.6089 " fill="none" id="Inicia_ruta-to-Siguiente_parada" style="stroke:#181818;stroke-width:1.0;"/><polygon fill="#181818" points="104.26,486.8069,112.2206,481.0079,106.7574,482.4753,105.29,477.012,104.26,486.8069" style="stroke:#181818;stroke-width:1.0;"/></g><!--link Siguiente_parada to Finaliza_ruta--><g id="link_Siguiente_parada_Finaliza_ruta"><path d="M93.83,537.4269 C95.57,548.8169 96.7419,556.446 98.4919,567.876 " fill="none" id="Siguiente_parada-to-Finaliza_ruta" style="stroke:#181818;stroke-width:1.0;"/><polygon fill="#181818" points="99.4,573.8069,101.9918,564.3052,98.6433,568.8645,94.084,565.5159,99.4,573.8069" style="stroke:#181818;stroke-width:1.0;"/></g><!--link Finaliza_ruta to Descanso--><g id="link_Finaliza_ruta_Descanso"><path d="M125.85,624.4269 C136.57,635.8169 145.2273,645.0081 155.9873,656.4381 " fill="none" id="Finaliza_ruta-to-Descanso" style="stroke:#181818;stroke-width:1.0;"/><polygon fill="#181818" points="160.1,660.8069,156.8435,651.512,156.6728,657.1662,151.0185,656.9955,160.1,660.8069" style="stroke:#181818;stroke-width:1.0;"/></g><!--link Finaliza_ruta to *end*Ruta--><g id="link_Finaliza_ruta_*end*Ruta"><path d="M103.14,624.4269 C103.14,641.1169 103.14,656.4769 103.14,668.9569 " fill="none" id="Finaliza_ruta-to-*end*Ruta" style="stroke:#181818;stroke-width:1.0;"/><polygon fill="#181818" points="103.14,674.9569,107.14,665.9569,103.14,669.9569,99.14,665.9569,103.14,674.9569" style="stroke:#181818;stroke-width:1.0;"/></g><!--link Descanso to Inicia_ruta--><g id="link_Descanso_Inicia_ruta"><path d="M184.64,661.0069 C186.3,623.1469 186.83,548.0869 170.14,487.2969 C166.65,474.5769 163.2714,466.6732 157.2614,455.8432 " fill="none" id="Descanso-to-Inicia_ruta" style="stroke:#181818;stroke-width:1.0;"/><polygon fill="#181818" points="154.35,450.5969,155.2195,460.4073,156.7762,454.9688,162.2146,456.5254,154.35,450.5969" style="stroke:#181818;stroke-width:1.0;"/></g><!--link Descanso to En_mantenimiento--><g id="link_Descanso_En_mantenimiento"><path d="M150.22,711.6669 C145.3,716.9069 140.95,722.8269 138.14,729.2969 C132.74,741.7169 135.2242,749.62 144.8242,759.71 " fill="none" id="Descanso-to-En_mantenimiento" style="stroke:#181818;stroke-width:1.0;"/><polygon fill="#181818" points="148.96,764.0569,145.6542,754.7794,145.5135,760.4345,139.8584,760.2937,148.96,764.0569" style="stroke:#181818;stroke-width:1.0;"/><text fill="#000000" font-family="sans-serif" font-size="13" lengthAdjust="spacing" textLength="66.0474" x="139.14" y="742.3638">Incidencia</text></g><!--link En_mantenimiento to Descanso--><g id="link_En_mantenimiento_Descanso"><path d="M198.87,763.9069 C201.87,758.3469 204.55,752.3069 206.14,746.2969 C209.24,734.6069 208.1539,727.4229 202.8039,716.9229 " fill="none" id="En_mantenimiento-to-Descanso" style="stroke:#181818;stroke-width:1.0;"/><polygon fill="#181818" points="200.08,711.5769,200.6019,721.4119,202.3499,716.0319,207.7299,717.78,200.08,711.5769" style="stroke:#181818;stroke-width:1.0;"/><text fill="#000000" font-family="sans-serif" font-size="13" lengthAdjust="spacing" textLength="56.7036" x="208.14" y="742.3638">Resuelto</text></g><g id="Finaliza_jornada"><rect fill="#F1F1F1" height="50" rx="12.5" ry="12.5" style="stroke:#181818;stroke-width:0.5;" width="133.2305" x="74.31" y="884.3"/><line style="stroke:#181818;stroke-width:0.5;" x1="74.31" x2="207.5405" y1="910.5969" y2="910.5969"/><text fill="#000000" font-family="sans-serif" font-size="14" lengthAdjust="spacing" textLength="113.2305" x="84.31" y="902.2951">Finaliza_jornada</text></g><ellipse cx="140.92" cy="1005.3" fill="none" rx="11" ry="11" style="stroke:#222222;stroke-width:1.0;"/><ellipse cx="140.92" cy="1005.3" fill="#222222" rx="6" ry="6" style="stroke:#222222;stroke-width:1.0;"/><!--link *start* to Bus--><g id="link_*start*_Bus"><path d="M140.92,26.26 C140.92,39.95 140.92,60.07 140.92,79.52 " fill="none" id="*start*-to-Bus" style="stroke:#181818;stroke-width:1.0;"/><polygon fill="#181818" points="140.92,85.52,144.92,76.52,140.92,80.52,136.92,76.52,140.92,85.52" style="stroke:#181818;stroke-width:1.0;"/></g><!--link Bus to Inicia_jornada--><g id="link_Bus_Inicia_jornada"><path d="M140.92,136.24 C140.92,154.03 140.92,172.08 140.92,189.85 " fill="none" id="Bus-to-Inicia_jornada" style="stroke:#181818;stroke-width:1.0;"/><polygon fill="#181818" points="140.92,195.85,144.92,186.85,140.92,190.85,136.92,186.85,140.92,195.85" style="stroke:#181818;stroke-width:1.0;"/></g><!--link Inicia_jornada to Ruta--><g id="link_Inicia_jornada_Ruta"><path d="M140.92,246.34 C140.92,261.22 140.92,275.96 140.92,299.79 " fill="none" id="Inicia_jornada-to-Ruta" style="stroke:#181818;stroke-width:1.0;"/><polygon fill="#181818" points="140.92,305.79,144.92,296.79,140.92,300.79,136.92,296.79,140.92,305.79" style="stroke:#181818;stroke-width:1.0;"/></g><!--link Ruta to Finaliza_jornada--><g id="link_Ruta_Finaliza_jornada"><path d="M140.92,824.6 C140.92,848.31 140.92,862.95 140.92,877.81 " fill="none" id="Ruta-to-Finaliza_jornada" style="stroke:#181818;stroke-width:1.0;"/><polygon fill="#181818" points="140.92,883.81,144.92,874.81,140.92,878.81,136.92,874.81,140.92,883.81" style="stroke:#181818;stroke-width:1.0;"/></g><!--link Finaliza_jornada to *end*--><g id="link_Finaliza_jornada_*end*"><path d="M140.92,934.51 C140.92,953.87 140.92,974.05 140.92,988.2 " fill="none" id="Finaliza_jornada-to-*end*" style="stroke:#181818;stroke-width:1.0;"/><polygon fill="#181818" points="140.92,994.2,144.92,985.2,140.92,989.2,136.92,985.2,140.92,994.2" style="stroke:#181818;stroke-width:1.0;"/></g><!--SRC=[TP312i8m38RlUOgUXRs01m-YWjTv73B2LYIofRAs5yLtDushR5CBBSd_Vqr_MgtEfYWsPXizoDRwoDGGrbStCBO8yrQ9CWO4y063rTeymCYgnc7ZZI5HIP_qwf_e4iboiFKDX_H4WfQYaWTYxEW-cJLJbDbPto1xzyUMKEfax6V2cRddkaS9mjIdGCwiXM-ejNAyyIzYcaFmqlfek-3W2L3c89ze-MENGexx0W00]--></g></svg>