<svg xmlns="http://www.w3.org/2000/svg" xmlns:xlink="http://www.w3.org/1999/xlink" contentStyleType="text/css" height="724px" preserveAspectRatio="none" style="width:1068px;height:724px;background:#FFFFFF;" version="1.1" viewBox="0 0 1068 724" width="1068px" zoomAndPan="magnify"><defs/><g><!--class Flota: TUS--><g id="elem_Flota: TUS"><rect codeLine="1" fill="#F1F1F1" height="48" id="Flota: TUS" rx="2.5" ry="2.5" style="stroke:#181818;stroke-width:0.5;" width="103.4287" x="314.88" y="7"/><ellipse cx="329.88" cy="23" fill="#ADD1B2" rx="11" ry="11" style="stroke:#181818;stroke-width:1.0;"/><path d="M332.8488,28.6406 Q332.2706,28.9375 331.63,29.0781 Q330.9894,29.2344 330.2863,29.2344 Q327.7863,29.2344 326.4581,27.5938 Q325.1456,25.9375 325.1456,22.8125 Q325.1456,19.6875 326.4581,18.0313 Q327.7863,16.375 330.2863,16.375 Q330.9894,16.375 331.63,16.5313 Q332.2863,16.6875 332.8488,16.9844 L332.8488,19.7031 Q332.2238,19.125 331.63,18.8594 Q331.0363,18.5781 330.4113,18.5781 Q329.0675,18.5781 328.38,19.6563 Q327.6925,20.7188 327.6925,22.8125 Q327.6925,24.9063 328.38,25.9844 Q329.0675,27.0469 330.4113,27.0469 Q331.0363,27.0469 331.63,26.7813 Q332.2238,26.5 332.8488,25.9219 L332.8488,28.6406 Z " fill="#000000"/><text fill="#000000" font-family="sans-serif" font-size="14" lengthAdjust="spacing" textLength="71.4287" x="343.88" y="27.8467">Flota: TUS</text><line style="stroke:#181818;stroke-width:0.5;" x1="315.88" x2="417.3087" y1="39" y2="39"/><line style="stroke:#181818;stroke-width:0.5;" x1="315.88" x2="417.3087" y1="47" y2="47"/></g><!--class Bus: 24c1--><g id="elem_Bus: 24c1"><rect codeLine="2" fill="#F1F1F1" height="96.8906" id="Bus: 24c1" rx="2.5" ry="2.5" style="stroke:#181818;stroke-width:0.5;" width="125.3262" x="303.93" y="132"/><ellipse cx="329.7159" cy="148" fill="#ADD1B2" rx="11" ry="11" style="stroke:#181818;stroke-width:1.0;"/><path d="M332.6847,153.6406 Q332.1066,153.9375 331.4659,154.0781 Q330.8253,154.2344 330.1222,154.2344 Q327.6222,154.2344 326.2941,152.5938 Q324.9816,150.9375 324.9816,147.8125 Q324.9816,144.6875 326.2941,143.0313 Q327.6222,141.375 330.1222,141.375 Q330.8253,141.375 331.4659,141.5313 Q332.1222,141.6875 332.6847,141.9844 L332.6847,144.7031 Q332.0597,144.125 331.4659,143.8594 Q330.8722,143.5781 330.2472,143.5781 Q328.9034,143.5781 328.2159,144.6563 Q327.5284,145.7188 327.5284,147.8125 Q327.5284,149.9063 328.2159,150.9844 Q328.9034,152.0469 330.2472,152.0469 Q330.8722,152.0469 331.4659,151.7813 Q332.0597,151.5 332.6847,150.9219 L332.6847,153.6406 Z " fill="#000000"/><text fill="#000000" font-family="sans-serif" font-size="14" lengthAdjust="spacing" textLength="69.3574" x="346.1128" y="152.8467">Bus: 24c1</text><line style="stroke:#181818;stroke-width:0.5;" x1="304.93" x2="428.2562" y1="164" y2="164"/><text fill="#000000" font-family="sans-serif" font-size="14" lengthAdjust="spacing" textLength="44.4473" x="309.93" y="180.9951">ID = 3</text><text fill="#000000" font-family="sans-serif" font-size="14" lengthAdjust="spacing" textLength="113.3262" x="309.93" y="197.292">Modelo = 5d3cc</text><text fill="#000000" font-family="sans-serif" font-size="14" lengthAdjust="spacing" textLength="86.8711" x="309.93" y="213.5889">Color = Azul</text><line style="stroke:#181818;stroke-width:0.5;" x1="304.93" x2="428.2562" y1="220.8906" y2="220.8906"/></g><!--class Incidencia: incidencia--><g id="elem_Incidencia: incidencia"><rect codeLine="7" fill="#F1F1F1" height="96.8906" id="Incidencia: incidencia" rx="2.5" ry="2.5" style="stroke:#181818;stroke-width:0.5;" width="183.1836" x="7" y="463.49"/><ellipse cx="22" cy="479.49" fill="#ADD1B2" rx="11" ry="11" style="stroke:#181818;stroke-width:1.0;"/><path d="M24.9688,485.1306 Q24.3906,485.4275 23.75,485.5681 Q23.1094,485.7244 22.4063,485.7244 Q19.9063,485.7244 18.5781,484.0838 Q17.2656,482.4275 17.2656,479.3025 Q17.2656,476.1775 18.5781,474.5213 Q19.9063,472.865 22.4063,472.865 Q23.1094,472.865 23.75,473.0213 Q24.4063,473.1775 24.9688,473.4744 L24.9688,476.1931 Q24.3438,475.615 23.75,475.3494 Q23.1563,475.0681 22.5313,475.0681 Q21.1875,475.0681 20.5,476.1463 Q19.8125,477.2088 19.8125,479.3025 Q19.8125,481.3963 20.5,482.4744 Q21.1875,483.5369 22.5313,483.5369 Q23.1563,483.5369 23.75,483.2713 Q24.3438,482.99 24.9688,482.4119 L24.9688,485.1306 Z " fill="#000000"/><text fill="#000000" font-family="sans-serif" font-size="14" lengthAdjust="spacing" textLength="151.1836" x="36" y="484.3367">Incidencia: incidencia</text><line style="stroke:#181818;stroke-width:0.5;" x1="8" x2="189.1836" y1="495.49" y2="495.49"/><text fill="#000000" font-family="sans-serif" font-size="14" lengthAdjust="spacing" textLength="161.8408" x="13" y="512.4851">Tipo = atropellamiento</text><text fill="#000000" font-family="sans-serif" font-size="14" lengthAdjust="spacing" textLength="136.0693" x="13" y="528.782">Duracion = 3 horas</text><text fill="#000000" font-family="sans-serif" font-size="14" lengthAdjust="spacing" textLength="131.1475" x="13" y="545.0789">Severidad = grave</text><line style="stroke:#181818;stroke-width:0.5;" x1="8" x2="189.1836" y1="552.3806" y2="552.3806"/></g><!--class Ruta: a--><g id="elem_Ruta: a"><rect codeLine="12" fill="#F1F1F1" height="80.5938" id="Ruta: a" rx="2.5" ry="2.5" style="stroke:#181818;stroke-width:0.5;" width="148.0693" x="148.56" y="305.89"/><ellipse cx="193.1371" cy="321.89" fill="#ADD1B2" rx="11" ry="11" style="stroke:#181818;stroke-width:1.0;"/><path d="M196.1059,327.5306 Q195.5278,327.8275 194.8871,327.9681 Q194.2465,328.1244 193.5434,328.1244 Q191.0434,328.1244 189.7153,326.4838 Q188.4028,324.8275 188.4028,321.7025 Q188.4028,318.5775 189.7153,316.9213 Q191.0434,315.265 193.5434,315.265 Q194.2465,315.265 194.8871,315.4213 Q195.5434,315.5775 196.1059,315.8744 L196.1059,318.5931 Q195.4809,318.015 194.8871,317.7494 Q194.2934,317.4681 193.6684,317.4681 Q192.3246,317.4681 191.6371,318.5463 Q190.9496,319.6088 190.9496,321.7025 Q190.9496,323.7963 191.6371,324.8744 Q192.3246,325.9369 193.6684,325.9369 Q194.2934,325.9369 194.8871,325.6713 Q195.4809,325.39 196.1059,324.8119 L196.1059,327.5306 Z " fill="#000000"/><text fill="#000000" font-family="sans-serif" font-size="14" lengthAdjust="spacing" textLength="50.415" x="213.6371" y="326.7367">Ruta: a</text><line style="stroke:#181818;stroke-width:0.5;" x1="149.56" x2="295.6293" y1="337.89" y2="337.89"/><text fill="#000000" font-family="sans-serif" font-size="14" lengthAdjust="spacing" textLength="69.9385" x="154.56" y="354.8851">ID = b3c1</text><text fill="#000000" font-family="sans-serif" font-size="14" lengthAdjust="spacing" textLength="136.0693" x="154.56" y="371.182">Duracion = 8 horas</text><line style="stroke:#181818;stroke-width:0.5;" x1="149.56" x2="295.6293" y1="378.4838" y2="378.4838"/></g><!--class Parada: parada--><g id="elem_Parada: parada"><rect codeLine="16" fill="#F1F1F1" height="80.5938" id="Parada: parada" rx="2.5" ry="2.5" style="stroke:#181818;stroke-width:0.5;" width="148.6504" x="647.27" y="471.63"/><ellipse cx="666.4975" cy="487.63" fill="#ADD1B2" rx="11" ry="11" style="stroke:#181818;stroke-width:1.0;"/><path d="M669.4663,493.2706 Q668.8882,493.5675 668.2475,493.7081 Q667.6069,493.8644 666.9038,493.8644 Q664.4038,493.8644 663.0757,492.2238 Q661.7632,490.5675 661.7632,487.4425 Q661.7632,484.3175 663.0757,482.6613 Q664.4038,481.005 666.9038,481.005 Q667.6069,481.005 668.2475,481.1613 Q668.9038,481.3175 669.4663,481.6144 L669.4663,484.3331 Q668.8413,483.755 668.2475,483.4894 Q667.6538,483.2081 667.0288,483.2081 Q665.685,483.2081 664.9975,484.2863 Q664.31,485.3488 664.31,487.4425 Q664.31,489.5363 664.9975,490.6144 Q665.685,491.6769 667.0288,491.6769 Q667.6538,491.6769 668.2475,491.4113 Q668.8413,491.13 669.4663,490.5519 L669.4663,493.2706 Z " fill="#000000"/><text fill="#000000" font-family="sans-serif" font-size="14" lengthAdjust="spacing" textLength="107.2559" x="681.437" y="492.4767">Parada: parada</text><line style="stroke:#181818;stroke-width:0.5;" x1="648.27" x2="794.9204" y1="503.63" y2="503.63"/><text fill="#000000" font-family="sans-serif" font-size="14" lengthAdjust="spacing" textLength="94.3633" x="653.27" y="520.6251">Numero = 10</text><text fill="#000000" font-family="sans-serif" font-size="14" lengthAdjust="spacing" textLength="136.6504" x="653.27" y="536.922">Ubicacion = UNEAT</text><line style="stroke:#181818;stroke-width:0.5;" x1="648.27" x2="794.9204" y1="544.2238" y2="544.2238"/></g><!--class Horario: ma?ana--><g id="elem_Horario: ma&#241;ana"><rect codeLine="20" fill="#F1F1F1" height="80.5938" id="Horario: ma&#241;ana" rx="2.5" ry="2.5" style="stroke:#181818;stroke-width:0.5;" width="149.9268" x="185.63" y="637.38"/><ellipse cx="200.63" cy="653.38" fill="#ADD1B2" rx="11" ry="11" style="stroke:#181818;stroke-width:1.0;"/><path d="M203.5988,659.0206 Q203.0206,659.3175 202.38,659.4581 Q201.7394,659.6144 201.0363,659.6144 Q198.5363,659.6144 197.2081,657.9738 Q195.8956,656.3175 195.8956,653.1925 Q195.8956,650.0675 197.2081,648.4113 Q198.5363,646.755 201.0363,646.755 Q201.7394,646.755 202.38,646.9113 Q203.0363,647.0675 203.5988,647.3644 L203.5988,650.0831 Q202.9738,649.505 202.38,649.2394 Q201.7863,648.9581 201.1613,648.9581 Q199.8175,648.9581 199.13,650.0363 Q198.4425,651.0988 198.4425,653.1925 Q198.4425,655.2863 199.13,656.3644 Q199.8175,657.4269 201.1613,657.4269 Q201.7863,657.4269 202.38,657.1613 Q202.9738,656.88 203.5988,656.3019 L203.5988,659.0206 Z " fill="#000000"/><text fill="#000000" font-family="sans-serif" font-size="14" lengthAdjust="spacing" textLength="117.9268" x="214.63" y="658.2267">Horario: ma&#241;ana</text><line style="stroke:#181818;stroke-width:0.5;" x1="186.63" x2="334.5568" y1="669.38" y2="669.38"/><text fill="#000000" font-family="sans-serif" font-size="14" lengthAdjust="spacing" textLength="88.7988" x="191.63" y="686.3751">Inicio = 8am</text><text fill="#000000" font-family="sans-serif" font-size="14" lengthAdjust="spacing" textLength="85.3467" x="191.63" y="702.672">Final = 2pm</text><line style="stroke:#181818;stroke-width:0.5;" x1="186.63" x2="334.5568" y1="709.9738" y2="709.9738"/></g><!--class Conductor: conductor--><g id="elem_Conductor: conductor"><rect codeLine="24" fill="#F1F1F1" height="80.5938" id="Conductor: conductor" rx="2.5" ry="2.5" style="stroke:#181818;stroke-width:0.5;" width="184.0518" x="877.57" y="305.89"/><ellipse cx="892.57" cy="321.89" fill="#ADD1B2" rx="11" ry="11" style="stroke:#181818;stroke-width:1.0;"/><path d="M895.5388,327.5306 Q894.9606,327.8275 894.32,327.9681 Q893.6794,328.1244 892.9763,328.1244 Q890.4763,328.1244 889.1481,326.4838 Q887.8356,324.8275 887.8356,321.7025 Q887.8356,318.5775 889.1481,316.9213 Q890.4763,315.265 892.9763,315.265 Q893.6794,315.265 894.32,315.4213 Q894.9763,315.5775 895.5388,315.8744 L895.5388,318.5931 Q894.9138,318.015 894.32,317.7494 Q893.7263,317.4681 893.1013,317.4681 Q891.7575,317.4681 891.07,318.5463 Q890.3825,319.6088 890.3825,321.7025 Q890.3825,323.7963 891.07,324.8744 Q891.7575,325.9369 893.1013,325.9369 Q893.7263,325.9369 894.32,325.6713 Q894.9138,325.39 895.5388,324.8119 L895.5388,327.5306 Z " fill="#000000"/><text fill="#000000" font-family="sans-serif" font-size="14" lengthAdjust="spacing" textLength="152.0518" x="906.57" y="326.7367">Conductor: conductor</text><line style="stroke:#181818;stroke-width:0.5;" x1="878.57" x2="1060.6218" y1="337.89" y2="337.89"/><text fill="#000000" font-family="sans-serif" font-size="14" lengthAdjust="spacing" textLength="77.3076" x="883.57" y="354.8851">ID = 88cz6</text><text fill="#000000" font-family="sans-serif" font-size="14" lengthAdjust="spacing" textLength="101.4453" x="883.57" y="371.182">Nombre = Javi</text><line style="stroke:#181818;stroke-width:0.5;" x1="878.57" x2="1060.6218" y1="378.4838" y2="378.4838"/></g><!--class Persona: persona--><g id="elem_Persona: persona"><rect codeLine="28" fill="#F1F1F1" height="48" id="Persona: persona" rx="2.5" ry="2.5" style="stroke:#181818;stroke-width:0.5;" width="153.8574" x="788.66" y="156.45"/><ellipse cx="803.66" cy="172.45" fill="#ADD1B2" rx="11" ry="11" style="stroke:#181818;stroke-width:1.0;"/><path d="M806.6288,178.0906 Q806.0506,178.3875 805.41,178.5281 Q804.7694,178.6844 804.0663,178.6844 Q801.5663,178.6844 800.2381,177.0438 Q798.9256,175.3875 798.9256,172.2625 Q798.9256,169.1375 800.2381,167.4813 Q801.5663,165.825 804.0663,165.825 Q804.7694,165.825 805.41,165.9813 Q806.0663,166.1375 806.6288,166.4344 L806.6288,169.1531 Q806.0038,168.575 805.41,168.3094 Q804.8163,168.0281 804.1913,168.0281 Q802.8475,168.0281 802.16,169.1063 Q801.4725,170.1688 801.4725,172.2625 Q801.4725,174.3563 802.16,175.4344 Q802.8475,176.4969 804.1913,176.4969 Q804.8163,176.4969 805.41,176.2313 Q806.0038,175.95 806.6288,175.3719 L806.6288,178.0906 Z " fill="#000000"/><text fill="#000000" font-family="sans-serif" font-size="14" lengthAdjust="spacing" textLength="121.8574" x="817.66" y="177.2967">Persona: persona</text><line style="stroke:#181818;stroke-width:0.5;" x1="789.66" x2="941.5174" y1="188.45" y2="188.45"/><line style="stroke:#181818;stroke-width:0.5;" x1="789.66" x2="941.5174" y1="196.45" y2="196.45"/></g><!--class Pasajero: pasajero--><g id="elem_Pasajero: pasajero"><rect codeLine="29" fill="#F1F1F1" height="80.5938" id="Pasajero: pasajero" rx="2.5" ry="2.5" style="stroke:#181818;stroke-width:0.5;" width="161.0488" x="681.07" y="305.89"/><ellipse cx="696.07" cy="321.89" fill="#ADD1B2" rx="11" ry="11" style="stroke:#181818;stroke-width:1.0;"/><path d="M699.0388,327.5306 Q698.4606,327.8275 697.82,327.9681 Q697.1794,328.1244 696.4763,328.1244 Q693.9763,328.1244 692.6481,326.4838 Q691.3356,324.8275 691.3356,321.7025 Q691.3356,318.5775 692.6481,316.9213 Q693.9763,315.265 696.4763,315.265 Q697.1794,315.265 697.82,315.4213 Q698.4763,315.5775 699.0388,315.8744 L699.0388,318.5931 Q698.4138,318.015 697.82,317.7494 Q697.2263,317.4681 696.6013,317.4681 Q695.2575,317.4681 694.57,318.5463 Q693.8825,319.6088 693.8825,321.7025 Q693.8825,323.7963 694.57,324.8744 Q695.2575,325.9369 696.6013,325.9369 Q697.2263,325.9369 697.82,325.6713 Q698.4138,325.39 699.0388,324.8119 L699.0388,327.5306 Z " fill="#000000"/><text fill="#000000" font-family="sans-serif" font-size="14" lengthAdjust="spacing" textLength="129.0488" x="710.07" y="326.7367">Pasajero: pasajero</text><line style="stroke:#181818;stroke-width:0.5;" x1="682.07" x2="841.1188" y1="337.89" y2="337.89"/><text fill="#000000" font-family="sans-serif" font-size="14" lengthAdjust="spacing" textLength="126.7793" x="687.07" y="354.8851">Nombre = Alfredo</text><text fill="#000000" font-family="sans-serif" font-size="14" lengthAdjust="spacing" textLength="99.5176" x="687.07" y="371.182">Saldo = 1.79&#8364;</text><line style="stroke:#181818;stroke-width:0.5;" x1="682.07" x2="841.1188" y1="378.4838" y2="378.4838"/></g><!--class Tarifa: tarifa--><g id="elem_Tarifa: tarifa"><rect codeLine="33" fill="#F1F1F1" height="80.5938" id="Tarifa: tarifa" rx="2.5" ry="2.5" style="stroke:#181818;stroke-width:0.5;" width="165.5557" x="407.81" y="471.63"/><ellipse cx="443.9073" cy="487.63" fill="#ADD1B2" rx="11" ry="11" style="stroke:#181818;stroke-width:1.0;"/><path d="M446.876,493.2706 Q446.2979,493.5675 445.6573,493.7081 Q445.0166,493.8644 444.3135,493.8644 Q441.8135,493.8644 440.4854,492.2238 Q439.1729,490.5675 439.1729,487.4425 Q439.1729,484.3175 440.4854,482.6613 Q441.8135,481.005 444.3135,481.005 Q445.0166,481.005 445.6573,481.1613 Q446.3135,481.3175 446.876,481.6144 L446.876,484.3331 Q446.251,483.755 445.6573,483.4894 Q445.0635,483.2081 444.4385,483.2081 Q443.0948,483.2081 442.4073,484.2863 Q441.7198,485.3488 441.7198,487.4425 Q441.7198,489.5363 442.4073,490.6144 Q443.0948,491.6769 444.4385,491.6769 Q445.0635,491.6769 445.6573,491.4113 Q446.251,491.13 446.876,490.5519 L446.876,493.2706 Z " fill="#000000"/><text fill="#000000" font-family="sans-serif" font-size="14" lengthAdjust="spacing" textLength="86.6729" x="462.5955" y="492.4767">Tarifa: tarifa</text><line style="stroke:#181818;stroke-width:0.5;" x1="408.81" x2="572.3657" y1="503.63" y2="503.63"/><text fill="#000000" font-family="sans-serif" font-size="14" lengthAdjust="spacing" textLength="103.6738" x="413.81" y="520.6251">Precio = 1.80&#8364;</text><text fill="#000000" font-family="sans-serif" font-size="14" lengthAdjust="spacing" textLength="153.5557" x="413.81" y="536.922">Metodo_pago = Saldo</text><line style="stroke:#181818;stroke-width:0.5;" x1="408.81" x2="572.3657" y1="544.2238" y2="544.2238"/></g><!--class Mantenimiento: revision1--><g id="elem_Mantenimiento: revision1"><rect codeLine="37" fill="#F1F1F1" height="80.5938" id="Mantenimiento: revision1" rx="2.5" ry="2.5" style="stroke:#181818;stroke-width:0.5;" width="210.7051" x="435.24" y="305.89"/><ellipse cx="450.24" cy="321.89" fill="#ADD1B2" rx="11" ry="11" style="stroke:#181818;stroke-width:1.0;"/><path d="M453.2088,327.5306 Q452.6306,327.8275 451.99,327.9681 Q451.3494,328.1244 450.6463,328.1244 Q448.1463,328.1244 446.8181,326.4838 Q445.5056,324.8275 445.5056,321.7025 Q445.5056,318.5775 446.8181,316.9213 Q448.1463,315.265 450.6463,315.265 Q451.3494,315.265 451.99,315.4213 Q452.6463,315.5775 453.2088,315.8744 L453.2088,318.5931 Q452.5838,318.015 451.99,317.7494 Q451.3963,317.4681 450.7713,317.4681 Q449.4275,317.4681 448.74,318.5463 Q448.0525,319.6088 448.0525,321.7025 Q448.0525,323.7963 448.74,324.8744 Q449.4275,325.9369 450.7713,325.9369 Q451.3963,325.9369 451.99,325.6713 Q452.5838,325.39 453.2088,324.8119 L453.2088,327.5306 Z " fill="#000000"/><text fill="#000000" font-family="sans-serif" font-size="14" lengthAdjust="spacing" textLength="178.7051" x="464.24" y="326.7367">Mantenimiento: revision1</text><line style="stroke:#181818;stroke-width:0.5;" x1="436.24" x2="644.9451" y1="337.89" y2="337.89"/><text fill="#000000" font-family="sans-serif" font-size="14" lengthAdjust="spacing" textLength="82.0381" x="441.24" y="354.8851">ID = M24c1</text><text fill="#000000" font-family="sans-serif" font-size="14" lengthAdjust="spacing" textLength="125.3369" x="441.24" y="371.182">Tipo = Preventivo</text><line style="stroke:#181818;stroke-width:0.5;" x1="436.24" x2="644.9451" y1="378.4838" y2="378.4838"/></g><!--link Flota: TUS to Bus: 24c1--><g id="link_Flota: TUS_Bus: 24c1"><path codeLine="42" d="M366.59,55.36 C366.59,75.83 366.59,100.21 366.59,125.78 " fill="none" id="Flota: TUS-to-Bus: 24c1" style="stroke:#181818;stroke-width:1.0;"/><polygon fill="#181818" points="366.59,131.78,370.59,122.78,366.59,126.78,362.59,122.78,366.59,131.78" style="stroke:#181818;stroke-width:1.0;"/><text fill="#000000" font-family="sans-serif" font-size="13" lengthAdjust="spacing" textLength="32.9443" x="367.59" y="98.0669">tiene</text></g><!--link Bus: 24c1 to Incidencia: incidencia--><g id="link_Bus: 24c1_Incidencia: incidencia"><path codeLine="43" d="M303.54,190.73 C239.01,203.96 141.95,235.04 96.59,305.89 C66.55,352.81 72.6305,413.1461 82.9505,457.5061 " fill="none" id="Bus: 24c1-to-Incidencia: incidencia" style="stroke:#181818;stroke-width:1.0;"/><polygon fill="#181818" points="84.31,463.35,86.1666,453.6777,83.177,458.4801,78.3747,455.4905,84.31,463.35" style="stroke:#181818;stroke-width:1.0;"/><text fill="#000000" font-family="sans-serif" font-size="13" lengthAdjust="spacing" textLength="32.9443" x="97.59" y="350.7569">tiene</text></g><!--link Bus: 24c1 to Ruta: a--><g id="link_Bus: 24c1_Ruta: a"><path codeLine="44" d="M324.55,229.25 C303.22,253.51 281.5714,278.1137 261.3614,301.1037 " fill="none" id="Bus: 24c1-to-Ruta: a" style="stroke:#181818;stroke-width:1.0;"/><polygon fill="#181818" points="257.4,305.61,266.3464,301.4914,260.7012,301.8547,260.3379,296.2095,257.4,305.61" style="stroke:#181818;stroke-width:1.0;"/><text fill="#000000" font-family="sans-serif" font-size="13" lengthAdjust="spacing" textLength="32.9443" x="295.59" y="271.9569">tiene</text></g><!--link Bus: 24c1 to Conductor: conductor--><g id="link_Bus: 24c1_Conductor: conductor"><path codeLine="45" d="M429.38,195.26 C523.57,216.45 706.72,259.41 859.59,305.89 C865.32,307.63 865.4774,307.6246 871.3774,309.5546 " fill="none" id="Bus: 24c1-to-Conductor: conductor" style="stroke:#181818;stroke-width:1.0;"/><polygon fill="#181818" points="877.08,311.42,869.7697,304.8201,872.3278,309.8655,867.2824,312.4236,877.08,311.42" style="stroke:#181818;stroke-width:1.0;"/><text fill="#000000" font-family="sans-serif" font-size="13" lengthAdjust="spacing" textLength="94.8467" x="752.59" y="271.9569">conducido_por</text></g><!--link Bus: 24c1 to Tarifa: tarifa--><g id="link_Bus: 24c1_Tarifa: tarifa"><path codeLine="46" d="M363.6,229.36 C362.55,271.9 364.98,335.1 383.59,386.49 C395.43,419.17 415.9858,444.7795 438.7658,467.0095 " fill="none" id="Bus: 24c1-to-Tarifa: tarifa" style="stroke:#181818;stroke-width:1.0;"/><polygon fill="#181818" points="443.06,471.2,439.4124,462.0515,439.4815,467.7079,433.8251,467.777,443.06,471.2" style="stroke:#181818;stroke-width:1.0;"/><text fill="#000000" font-family="sans-serif" font-size="13" lengthAdjust="spacing" textLength="32.9443" x="384.59" y="350.7569">tiene</text></g><!--link Bus: 24c1 to Mantenimiento: revision1--><g id="link_Bus: 24c1_Mantenimiento: revision1"><path codeLine="47" d="M417.39,229.25 C443.17,253.51 469.7414,278.5072 494.1614,301.4972 " fill="none" id="Bus: 24c1-to-Mantenimiento: revision1" style="stroke:#181818;stroke-width:1.0;"/><polygon fill="#181818" points="498.53,305.61,494.7189,296.5284,494.8895,302.1827,489.2352,302.3532,498.53,305.61" style="stroke:#181818;stroke-width:1.0;"/><text fill="#000000" font-family="sans-serif" font-size="13" lengthAdjust="spacing" textLength="54.7866" x="464.59" y="271.9569">requiere</text></g><!--link Ruta: a to Parada: parada--><g id="link_Ruta: a_Parada: parada"><path codeLine="48" d="M297.05,377.03 C305.95,380.34 314.95,383.56 323.59,386.49 C440.59,426.03 473.13,425.32 590.59,463.49 C609,469.46 623.046,474.3041 641.426,480.9341 " fill="none" id="Ruta: a-to-Parada: parada" style="stroke:#181818;stroke-width:1.0;"/><polygon fill="#181818" points="647.07,482.97,639.9612,476.1535,642.3666,481.2734,637.2467,483.6788,647.07,482.97" style="stroke:#181818;stroke-width:1.0;"/><text fill="#000000" font-family="sans-serif" font-size="13" lengthAdjust="spacing" textLength="32.9443" x="484.59" y="429.5569">tiene</text></g><!--link Ruta: a to Horario: ma?ana--><g id="link_Ruta: a_Horario: ma&#241;ana"><path codeLine="49" d="M227.18,386.93 C234.49,450.35 248.0331,567.7394 255.3331,631.0894 " fill="none" id="Ruta: a-to-Horario: ma&#241;ana" style="stroke:#181818;stroke-width:1.0;"/><polygon fill="#181818" points="256.02,637.05,258.9634,627.6513,255.4476,632.0829,251.016,628.5671,256.02,637.05" style="stroke:#181818;stroke-width:1.0;"/><text fill="#000000" font-family="sans-serif" font-size="13" lengthAdjust="spacing" textLength="32.9443" x="248.59" y="516.4969">tiene</text></g><!--link Incidencia: incidencia to Horario: ma?ana--><g id="link_Incidencia: incidencia_Horario: ma&#241;ana"><path codeLine="50" d="M145.88,560.73 C169.89,584.99 194.4697,609.8452 217.2197,632.8352 " fill="none" id="Incidencia: incidencia-to-Horario: ma&#241;ana" style="stroke:#181818;stroke-width:1.0;"/><polygon fill="#181818" points="221.44,637.1,217.9527,627.8892,217.9231,633.546,212.2663,633.5163,221.44,637.1" style="stroke:#181818;stroke-width:1.0;"/><text fill="#000000" font-family="sans-serif" font-size="13" lengthAdjust="spacing" textLength="40.752" x="190.59" y="603.4469">afecta</text></g><!--link Persona: persona to Conductor: conductor--><g id="link_Persona: persona_Conductor: conductor"><path codeLine="51" d="M880.49,204.91 C897.17,231.17 921.2625,269.1056 941.2625,300.5856 " fill="none" id="Persona: persona-to-Conductor: conductor" style="stroke:#181818;stroke-width:1.0;"/><polygon fill="#181818" points="944.48,305.65,943.03,295.9085,941.7987,301.4297,936.2775,300.1985,944.48,305.65" style="stroke:#181818;stroke-width:1.0;"/></g><!--link Persona: persona to Pasajero: pasajero--><g id="link_Persona: persona_Pasajero: pasajero"><path codeLine="52" d="M850.69,204.91 C834.01,231.17 809.9164,269.1049 789.9264,300.5849 " fill="none" id="Persona: persona-to-Pasajero: pasajero" style="stroke:#181818;stroke-width:1.0;"/><polygon fill="#181818" points="786.71,305.65,794.9113,300.1966,789.3903,301.4291,788.1578,295.9081,786.71,305.65" style="stroke:#181818;stroke-width:1.0;"/></g><!--link Pasajero: pasajero to Tarifa: tarifa--><g id="link_Pasajero: pasajero_Tarifa: tarifa"><path codeLine="53" d="M695.99,386.83 C653.54,412.48 603.6149,442.6363 561.1949,468.2763 " fill="none" id="Pasajero: pasajero-to-Tarifa: tarifa" style="stroke:#181818;stroke-width:1.0;"/><polygon fill="#181818" points="556.06,471.38,565.8315,470.1477,560.3391,468.7936,561.6932,463.3012,556.06,471.38" style="stroke:#181818;stroke-width:1.0;"/><text fill="#000000" font-family="sans-serif" font-size="13" lengthAdjust="spacing" textLength="32.4365" x="642.59" y="429.5569">paga</text></g><!--link Conductor: conductor to Horario: ma?ana--><g id="link_Conductor: conductor_Horario: ma&#241;ana"><path codeLine="54" d="M951.84,386.74 C927.78,435.59 880.06,517.47 813.59,560.38 C735.23,610.95 474.2008,649.7835 341.9808,666.8135 " fill="none" id="Conductor: conductor-to-Horario: ma&#241;ana" style="stroke:#181818;stroke-width:1.0;"/><polygon fill="#181818" points="336.03,667.58,345.4672,670.3975,340.989,666.9413,344.4453,662.4631,336.03,667.58" style="stroke:#181818;stroke-width:1.0;"/><text fill="#000000" font-family="sans-serif" font-size="13" lengthAdjust="spacing" textLength="32.9443" x="907.59" y="516.4969">tiene</text></g><!--link Pasajero: pasajero to Parada: parada--><g id="link_Pasajero: pasajero_Parada: parada"><path codeLine="55" d="M751.91,386.83 C745.64,412.48 738.9452,439.9117 732.6752,465.5517 " fill="none" id="Pasajero: pasajero-to-Parada: parada" style="stroke:#181818;stroke-width:1.0;"/><polygon fill="#181818" points="731.25,471.38,737.2734,463.5878,732.4377,466.5231,729.5024,461.6874,731.25,471.38" style="stroke:#181818;stroke-width:1.0;"/><text fill="#000000" font-family="sans-serif" font-size="13" lengthAdjust="spacing" textLength="91.4951" x="744.59" y="429.5569">suben y bajan</text></g><!--link Ruta: a to Incidencia: incidencia--><g id="link_Ruta: a_Incidencia: incidencia"><path codeLine="56" d="M192.57,386.83 C175.16,409.83 156.7217,434.1664 138.3617,458.4164 " fill="none" id="Ruta: a-to-Incidencia: incidencia" style="stroke:#181818;stroke-width:1.0;"/><polygon fill="#181818" points="134.74,463.2,143.3617,458.4391,137.7581,459.2137,136.9835,453.6101,134.74,463.2" style="stroke:#181818;stroke-width:1.0;"/><text fill="#000000" font-family="sans-serif" font-size="13" lengthAdjust="spacing" textLength="32.9316" x="169.59" y="429.5569">sufre</text></g><!--SRC=[ZLDBRjim4Dtt58Js2UAuQLq1BU3ya1Hm4DJskXYHTCg08XLA5D0KtVGytVGClKbFqY5bCP8f2T5298Spxyqypb09PKcIQwahICbckqxU4FneOpwtPKfEtz9PGdvuk_jkByb7CW_7bMPSQZITiJcbmNoXfJPeNJvRwOq_ky2tYWh6yOUa8koxB1jHE52eZ2wub90BhYeThY-j0IgqSgcGRzf06QxMlEP6C61uzs2WvZ7z5-kgXQYgR4vdGnIB3aKFw1uCC8Gg_Dh5kxCvDww2sKcmRJD1MyZjtTLo4mFU88yHEYKv_Fq3gf-Y4XZiqe4y6A-50ecsqoAFqIwqOfPMsgI4jjkewCM2FhzxoLldcU5e_Wor62YOcr8hLt6pIVfgbF28LJizcbrFaHPvANU6ivUtN8DaNgdZzn_-_VeTasvGaXroLdxjOjuRtaWoErwSjB6-AtcbcVvQm8ExzGmnxWfKnPLeMYibXjUYnDU9kttbPk2mDP6xna1HjyX-wOuIEJhwr1iYB06vceRishtVs4nC1eLEdlGQxeFs89nGsWo77ce_oJCkg3iyMS7DFZBaxUCEnwX7qdUD1wJdF2RYQ2piEAsW2OwQUqAzoOY1GTZx3qp8YCpOklkqXb_lDMgCqiM29wNDk2BVIGQFe98XwSSRjBGuqVy1]--></g></svg>